<?xml version="1.0" encoding="utf-8" standalone="no"?>
<!DOCTYPE svg PUBLIC "-//W3C//DTD SVG 1.1//EN"
  "http://www.w3.org/Graphics/SVG/1.1/DTD/svg11.dtd">
<!-- Created with matplotlib (https://matplotlib.org/) -->
<svg height="189.590757pt" version="1.1" viewBox="0 0 308.270625 189.590757" width="308.270625pt" xmlns="http://www.w3.org/2000/svg" xmlns:xlink="http://www.w3.org/1999/xlink">
 <defs>
  <style type="text/css">
*{stroke-linecap:butt;stroke-linejoin:round;}
  </style>
 </defs>
 <g id="figure_1">
  <g id="patch_1">
   <path d="M 0 189.590757 
L 308.270625 189.590757 
L 308.270625 0 
L 0 0 
z
" style="fill:#ffffff;"/>
  </g>
  <g id="axes_1">
   <g id="patch_2">
    <path clip-path="url(#p0be4422a28)" d="M 137.298905 96.788125 
L 114.76206 76.012177 
L 109.726365 83.397665 
z
"/>
   </g>
   <g id="patch_3">
    <path clip-path="url(#p0be4422a28)" d="M 164.682284 83.60196 
L 149.226045 57.05261 
L 142.237411 62.625998 
z
"/>
   </g>
   <g id="line2d_1">
    <path clip-path="url(#p0be4422a28)" d="M 52.881505 166.655756 
L 55.152819 136.348646 
" style="fill:none;stroke:#000000;stroke-linecap:square;stroke-width:1.2;"/>
   </g>
   <g id="line2d_2">
    <path clip-path="url(#p0be4422a28)" d="M 55.152819 136.348646 
L 30.040743 119.227707 
" style="fill:none;stroke:#000000;stroke-linecap:square;stroke-width:1.2;"/>
   </g>
   <g id="line2d_3">
    <path clip-path="url(#p0be4422a28)" d="M 55.998555 129.712766 
L 35.908895 116.016015 
" style="fill:none;stroke:#000000;stroke-linecap:square;stroke-width:1.2;"/>
   </g>
   <g id="line2d_4">
    <path clip-path="url(#p0be4422a28)" d="M 30.040743 119.227707 
L 32.312066 88.920592 
" style="fill:none;stroke:#000000;stroke-linecap:square;stroke-width:1.2;"/>
   </g>
   <g id="line2d_5">
    <path clip-path="url(#p0be4422a28)" d="M 32.312066 88.920592 
L 7.2 71.79965 
" style="fill:none;stroke:#000000;stroke-linecap:square;stroke-width:1.2;"/>
   </g>
   <g id="line2d_6">
    <path clip-path="url(#p0be4422a28)" d="M 32.312066 88.920592 
L 45.976642 82.340078 
" style="fill:none;stroke:#000000;stroke-linecap:square;stroke-width:1.2;"/>
   </g>
   <g id="line2d_7">
    <path clip-path="url(#p0be4422a28)" d="M 45.976642 82.340078 
L 59.641217 75.759565 
" style="fill:none;stroke:#0000ff;stroke-linecap:square;stroke-width:1.2;"/>
   </g>
   <g id="line2d_8">
    <path clip-path="url(#p0be4422a28)" d="M 37.630606 92.973594 
L 48.562266 87.709183 
" style="fill:none;stroke:#000000;stroke-linecap:square;stroke-width:1.2;"/>
   </g>
   <g id="line2d_9">
    <path clip-path="url(#p0be4422a28)" d="M 48.562266 87.709183 
L 59.493927 82.444772 
" style="fill:none;stroke:#0000ff;stroke-linecap:square;stroke-width:1.2;"/>
   </g>
   <g id="line2d_10">
    <path clip-path="url(#p0be4422a28)" d="M 59.745617 75.770016 
L 72.27555 84.312693 
" style="fill:none;stroke:#0000ff;stroke-linecap:square;stroke-width:1.2;"/>
   </g>
   <g id="line2d_11">
    <path clip-path="url(#p0be4422a28)" d="M 72.27555 84.312693 
L 84.805483 92.855371 
" style="fill:none;stroke:#000000;stroke-linecap:square;stroke-width:1.2;"/>
   </g>
   <g id="line2d_12">
    <path clip-path="url(#p0be4422a28)" d="M 84.805483 92.855371 
L 98.469498 86.274605 
" style="fill:none;stroke:#000000;stroke-linecap:square;stroke-width:1.2;"/>
   </g>
   <g id="line2d_13">
    <path clip-path="url(#p0be4422a28)" d="M 98.469498 86.274605 
L 112.133513 79.693838 
" style="fill:none;stroke:#ff0000;stroke-linecap:square;stroke-width:1.2;"/>
   </g>
   <g id="line2d_14">
    <path clip-path="url(#p0be4422a28)" d="M 137.298905 96.788125 
L 135.027596 127.095235 
" style="fill:none;stroke:#000000;stroke-linecap:square;stroke-width:1.2;"/>
   </g>
   <g id="line2d_15">
    <path clip-path="url(#p0be4422a28)" d="M 133.349124 129.557127 
L 145.877482 138.098729 
" style="fill:none;stroke:#000000;stroke-linecap:square;stroke-width:1.2;"/>
   </g>
   <g id="line2d_16">
    <path clip-path="url(#p0be4422a28)" d="M 145.877482 138.098729 
L 158.40584 146.64033 
" style="fill:none;stroke:#ff0000;stroke-linecap:square;stroke-width:1.2;"/>
   </g>
   <g id="line2d_17">
    <path clip-path="url(#p0be4422a28)" d="M 136.706069 124.633342 
L 149.234427 133.174944 
" style="fill:none;stroke:#000000;stroke-linecap:square;stroke-width:1.2;"/>
   </g>
   <g id="line2d_18">
    <path clip-path="url(#p0be4422a28)" d="M 149.234427 133.174944 
L 161.762785 141.716545 
" style="fill:none;stroke:#ff0000;stroke-linecap:square;stroke-width:1.2;"/>
   </g>
   <g id="line2d_19">
    <path clip-path="url(#p0be4422a28)" d="M 135.027596 127.095235 
L 121.390696 133.662419 
" style="fill:none;stroke:#000000;stroke-linecap:square;stroke-width:1.2;"/>
   </g>
   <g id="line2d_20">
    <path clip-path="url(#p0be4422a28)" d="M 121.390696 133.662419 
L 107.753795 140.229602 
" style="fill:none;stroke:#ff0000;stroke-linecap:square;stroke-width:1.2;"/>
   </g>
   <g id="line2d_21">
    <path clip-path="url(#p0be4422a28)" d="M 137.298905 96.788125 
L 164.682284 83.60196 
" style="fill:none;stroke:#000000;stroke-linecap:square;stroke-width:1.2;"/>
   </g>
   <g id="line2d_22">
    <path clip-path="url(#p0be4422a28)" d="M 145.731728 59.839304 
L 156.835016 31.548211 
" style="fill:none;stroke:#000000;stroke-linecap:square;stroke-width:1.2;"/>
   </g>
   <g id="line2d_23">
    <path clip-path="url(#p0be4422a28)" d="M 141.294731 54.833059 
L 150.177362 32.200185 
" style="fill:none;stroke:#000000;stroke-linecap:square;stroke-width:1.2;"/>
   </g>
   <g id="line2d_24">
    <path clip-path="url(#p0be4422a28)" d="M 156.835016 31.548211 
L 137.886488 7.787584 
" style="fill:none;stroke:#000000;stroke-linecap:square;stroke-width:1.2;"/>
   </g>
   <g id="line2d_25">
    <path clip-path="url(#p0be4422a28)" d="M 137.886488 7.787584 
L 107.834672 12.316023 
" style="fill:none;stroke:#000000;stroke-linecap:square;stroke-width:1.2;"/>
   </g>
   <g id="line2d_26">
    <path clip-path="url(#p0be4422a28)" d="M 135.769269 14.133157 
L 111.727816 17.755908 
" style="fill:none;stroke:#000000;stroke-linecap:square;stroke-width:1.2;"/>
   </g>
   <g id="line2d_27">
    <path clip-path="url(#p0be4422a28)" d="M 107.834672 12.316023 
L 96.72936 40.609141 
" style="fill:none;stroke:#000000;stroke-linecap:square;stroke-width:1.2;"/>
   </g>
   <g id="line2d_28">
    <path clip-path="url(#p0be4422a28)" d="M 96.72936 40.609141 
L 115.679911 64.36977 
" style="fill:none;stroke:#000000;stroke-linecap:square;stroke-width:1.2;"/>
   </g>
   <g id="line2d_29">
    <path clip-path="url(#p0be4422a28)" d="M 103.28335 39.269419 
L 118.443791 58.277922 
" style="fill:none;stroke:#000000;stroke-linecap:square;stroke-width:1.2;"/>
   </g>
   <g id="line2d_30">
    <path clip-path="url(#p0be4422a28)" d="M 164.682284 83.60196 
L 168.055106 98.382947 
" style="fill:none;stroke:#000000;stroke-linecap:square;stroke-width:1.2;"/>
   </g>
   <g id="line2d_31">
    <path clip-path="url(#p0be4422a28)" d="M 168.055106 98.382947 
L 171.427928 113.163935 
" style="fill:none;stroke:#0000ff;stroke-linecap:square;stroke-width:1.2;"/>
   </g>
   <g id="line2d_32">
    <path clip-path="url(#p0be4422a28)" d="M 171.547936 113.282608 
L 185.187426 119.850554 
" style="fill:none;stroke:#0000ff;stroke-linecap:square;stroke-width:1.2;"/>
   </g>
   <g id="line2d_33">
    <path clip-path="url(#p0be4422a28)" d="M 185.187426 119.850554 
L 198.826916 126.418501 
" style="fill:none;stroke:#000000;stroke-linecap:square;stroke-width:1.2;"/>
   </g>
   <g id="line2d_34">
    <path clip-path="url(#p0be4422a28)" d="M 198.826916 126.418501 
L 226.210296 113.232335 
" style="fill:none;stroke:#000000;stroke-linecap:square;stroke-width:1.2;"/>
   </g>
   <g id="line2d_35">
    <path clip-path="url(#p0be4422a28)" d="M 226.210296 113.232335 
L 252.298967 128.81948 
" style="fill:none;stroke:#000000;stroke-linecap:square;stroke-width:1.2;"/>
   </g>
   <g id="line2d_36">
    <path clip-path="url(#p0be4422a28)" d="M 231.875645 109.675323 
L 252.746582 122.145039 
" style="fill:none;stroke:#000000;stroke-linecap:square;stroke-width:1.2;"/>
   </g>
   <g id="line2d_37">
    <path clip-path="url(#p0be4422a28)" d="M 252.298967 128.81948 
L 255.024136 159.090127 
" style="fill:none;stroke:#000000;stroke-linecap:square;stroke-width:1.2;"/>
   </g>
   <g id="line2d_38">
    <path clip-path="url(#p0be4422a28)" d="M 253.309065 156.65359 
L 240.910379 165.380987 
" style="fill:none;stroke:#000000;stroke-linecap:square;stroke-width:1.2;"/>
   </g>
   <g id="line2d_39">
    <path clip-path="url(#p0be4422a28)" d="M 240.910379 165.380987 
L 228.511692 174.108384 
" style="fill:none;stroke:#ff0000;stroke-linecap:square;stroke-width:1.2;"/>
   </g>
   <g id="line2d_40">
    <path clip-path="url(#p0be4422a28)" d="M 256.739207 161.526665 
L 244.340521 170.254062 
" style="fill:none;stroke:#000000;stroke-linecap:square;stroke-width:1.2;"/>
   </g>
   <g id="line2d_41">
    <path clip-path="url(#p0be4422a28)" d="M 244.340521 170.254062 
L 231.941835 178.981459 
" style="fill:none;stroke:#ff0000;stroke-linecap:square;stroke-width:1.2;"/>
   </g>
   <g id="line2d_42">
    <path clip-path="url(#p0be4422a28)" d="M 255.024136 159.090127 
L 268.758293 165.452643 
" style="fill:none;stroke:#000000;stroke-linecap:square;stroke-width:1.2;"/>
   </g>
   <g id="line2d_43">
    <path clip-path="url(#p0be4422a28)" d="M 268.758293 165.452643 
L 282.49245 171.815158 
" style="fill:none;stroke:#ff0000;stroke-linecap:square;stroke-width:1.2;"/>
   </g>
   <g id="line2d_44">
    <path clip-path="url(#p0be4422a28)" d="M 252.298967 128.81948 
L 263.716545 118.844261 
" style="fill:none;stroke:#000000;stroke-linecap:square;stroke-width:1.2;"/>
   </g>
   <g id="line2d_45">
    <path clip-path="url(#p0be4422a28)" d="M 263.716545 118.844261 
L 275.134122 108.869042 
" style="fill:none;stroke:#0000ff;stroke-linecap:square;stroke-width:1.2;"/>
   </g>
   <g id="line2d_46">
    <path clip-path="url(#p0be4422a28)" d="M 275.157088 108.755037 
L 269.199637 94.815914 
" style="fill:none;stroke:#0000ff;stroke-linecap:square;stroke-width:1.2;"/>
   </g>
   <g id="line2d_47">
    <path clip-path="url(#p0be4422a28)" d="M 269.199637 94.815914 
L 263.242185 80.876791 
" style="fill:none;stroke:#000000;stroke-linecap:square;stroke-width:1.2;"/>
   </g>
   <g id="line2d_48">
    <path clip-path="url(#p0be4422a28)" d="M 268.485837 108.309211 
L 263.719876 97.157913 
" style="fill:none;stroke:#0000ff;stroke-linecap:square;stroke-width:1.2;"/>
   </g>
   <g id="line2d_49">
    <path clip-path="url(#p0be4422a28)" d="M 263.719876 97.157913 
L 258.953915 86.006615 
" style="fill:none;stroke:#000000;stroke-linecap:square;stroke-width:1.2;"/>
   </g>
   <g id="line2d_50">
    <path clip-path="url(#p0be4422a28)" d="M 263.242185 80.876791 
L 278.829335 54.788119 
" style="fill:none;stroke:#000000;stroke-linecap:square;stroke-width:1.2;"/>
   </g>
   <g id="line2d_51">
    <path clip-path="url(#p0be4422a28)" d="M 263.242185 80.876791 
L 248.132966 82.237026 
" style="fill:none;stroke:#000000;stroke-linecap:square;stroke-width:1.2;"/>
   </g>
   <g id="line2d_52">
    <path clip-path="url(#p0be4422a28)" d="M 248.132966 82.237026 
L 233.023748 83.59726 
" style="fill:none;stroke:#0000ff;stroke-linecap:square;stroke-width:1.2;"/>
   </g>
   <g id="line2d_53">
    <path clip-path="url(#p0be4422a28)" d="M 232.919348 83.536498 
L 223.471184 71.687901 
" style="fill:none;stroke:#0000ff;stroke-linecap:square;stroke-width:1.2;"/>
   </g>
   <g id="line2d_54">
    <path clip-path="url(#p0be4422a28)" d="M 223.471184 71.687901 
L 214.02302 59.839304 
" style="fill:none;stroke:#000000;stroke-linecap:square;stroke-width:1.2;"/>
   </g>
   <g id="line2d_55">
    <path clip-path="url(#p0be4422a28)" d="M 214.02302 59.839304 
L 229.219123 33.519652 
" style="fill:none;stroke:#000000;stroke-linecap:square;stroke-width:1.2;"/>
   </g>
   <g id="line2d_56">
    <path clip-path="url(#p0be4422a28)" d="M 210.381801 54.227645 
L 222.538684 33.171924 
" style="fill:none;stroke:#000000;stroke-linecap:square;stroke-width:1.2;"/>
   </g>
   <g id="line2d_57">
    <path clip-path="url(#p0be4422a28)" d="M 229.219123 33.519652 
L 214.02302 7.2 
" style="fill:none;stroke:#000000;stroke-linecap:square;stroke-width:1.2;"/>
   </g>
   <g id="line2d_58">
    <path clip-path="url(#p0be4422a28)" d="M 214.02302 7.2 
L 183.630812 7.2 
" style="fill:none;stroke:#000000;stroke-linecap:square;stroke-width:1.2;"/>
   </g>
   <g id="line2d_59">
    <path clip-path="url(#p0be4422a28)" d="M 210.983799 13.159256 
L 186.670033 13.159256 
" style="fill:none;stroke:#000000;stroke-linecap:square;stroke-width:1.2;"/>
   </g>
   <g id="line2d_60">
    <path clip-path="url(#p0be4422a28)" d="M 183.630812 7.2 
L 168.434708 33.519652 
" style="fill:none;stroke:#000000;stroke-linecap:square;stroke-width:1.2;"/>
   </g>
   <g id="line2d_61">
    <path clip-path="url(#p0be4422a28)" d="M 168.434708 33.519652 
L 183.630812 59.839304 
" style="fill:none;stroke:#000000;stroke-linecap:square;stroke-width:1.2;"/>
   </g>
   <g id="line2d_62">
    <path clip-path="url(#p0be4422a28)" d="M 175.115148 33.171924 
L 187.272031 54.227645 
" style="fill:none;stroke:#000000;stroke-linecap:square;stroke-width:1.2;"/>
   </g>
   <g id="line2d_63">
    <path clip-path="url(#p0be4422a28)" d="M 84.805483 92.855371 
L 83.672389 107.974728 
" style="fill:none;stroke:#000000;stroke-linecap:square;stroke-width:1.2;"/>
   </g>
   <g id="line2d_64">
    <path clip-path="url(#p0be4422a28)" d="M 83.672389 107.974728 
L 82.539296 123.094085 
" style="fill:none;stroke:#0000ff;stroke-linecap:square;stroke-width:1.2;"/>
   </g>
   <g id="line2d_65">
    <path clip-path="url(#p0be4422a28)" d="M 78.636273 95.433885 
L 77.729798 107.529371 
" style="fill:none;stroke:#000000;stroke-linecap:square;stroke-width:1.2;"/>
   </g>
   <g id="line2d_66">
    <path clip-path="url(#p0be4422a28)" d="M 77.729798 107.529371 
L 76.823323 119.624857 
" style="fill:none;stroke:#0000ff;stroke-linecap:square;stroke-width:1.2;"/>
   </g>
   <g id="line2d_67">
    <path clip-path="url(#p0be4422a28)" d="M 82.48197 123.187623 
L 68.817394 129.768135 
" style="fill:none;stroke:#0000ff;stroke-linecap:square;stroke-width:1.2;"/>
   </g>
   <g id="line2d_68">
    <path clip-path="url(#p0be4422a28)" d="M 68.817394 129.768135 
L 55.152819 136.348646 
" style="fill:none;stroke:#000000;stroke-linecap:square;stroke-width:1.2;"/>
   </g>
   <g id="line2d_69">
    <path clip-path="url(#p0be4422a28)" d="M 183.630812 59.839304 
L 164.682284 83.60196 
" style="fill:none;stroke:#000000;stroke-linecap:square;stroke-width:1.2;"/>
   </g>
   <g id="line2d_70">
    <path clip-path="url(#p0be4422a28)" d="M 115.679911 64.36977 
L 145.731728 59.839304 
" style="fill:none;stroke:#000000;stroke-linecap:square;stroke-width:1.2;"/>
   </g>
   <g id="line2d_71">
    <path clip-path="url(#p0be4422a28)" d="M 232.95594 83.67036 
L 229.583118 98.451347 
" style="fill:none;stroke:#0000ff;stroke-linecap:square;stroke-width:1.2;"/>
   </g>
   <g id="line2d_72">
    <path clip-path="url(#p0be4422a28)" d="M 229.583118 98.451347 
L 226.210296 113.232335 
" style="fill:none;stroke:#000000;stroke-linecap:square;stroke-width:1.2;"/>
   </g>
   <g id="line2d_73">
    <path clip-path="url(#p0be4422a28)" d="M 183.630812 59.839304 
L 214.02302 59.839304 
" style="fill:none;stroke:#000000;stroke-linecap:square;stroke-width:1.2;"/>
   </g>
   <g id="text_1">
    <!-- N -->
    <defs>
     <path d="M 9.8125 72.90625 
L 23.09375 72.90625 
L 55.421875 11.921875 
L 55.421875 72.90625 
L 64.984375 72.90625 
L 64.984375 0 
L 51.703125 0 
L 19.390625 60.984375 
L 19.390625 0 
L 9.8125 0 
z
" id="DejaVuSans-78"/>
    </defs>
    <g style="fill:#0000ff;" transform="translate(55.204667 79.045677)scale(0.12 -0.12)">
     <use xlink:href="#DejaVuSans-78"/>
    </g>
   </g>
   <g id="text_2">
    <!-- O -->
    <defs>
     <path d="M 39.40625 66.21875 
Q 28.65625 66.21875 22.328125 58.203125 
Q 16.015625 50.203125 16.015625 36.375 
Q 16.015625 22.609375 22.328125 14.59375 
Q 28.65625 6.59375 39.40625 6.59375 
Q 50.140625 6.59375 56.421875 14.59375 
Q 62.703125 22.609375 62.703125 36.375 
Q 62.703125 50.203125 56.421875 58.203125 
Q 50.140625 66.21875 39.40625 66.21875 
z
M 39.40625 74.21875 
Q 54.734375 74.21875 63.90625 63.9375 
Q 73.09375 53.65625 73.09375 36.375 
Q 73.09375 19.140625 63.90625 8.859375 
Q 54.734375 -1.421875 39.40625 -1.421875 
Q 24.03125 -1.421875 14.8125 8.828125 
Q 5.609375 19.09375 5.609375 36.375 
Q 5.609375 53.65625 14.8125 63.9375 
Q 24.03125 74.21875 39.40625 74.21875 
z
" id="DejaVuSans-79"/>
    </defs>
    <g style="fill:#ff0000;" transform="translate(107.465738 82.978431)scale(0.12 -0.12)">
     <use xlink:href="#DejaVuSans-79"/>
    </g>
   </g>
   <g id="text_3">
    <!-- O -->
    <g style="fill:#ff0000;" transform="translate(160.139662 147.527424)scale(0.12 -0.12)">
     <use xlink:href="#DejaVuSans-79"/>
    </g>
   </g>
   <g id="text_4">
    <!-- HO -->
    <defs>
     <path d="M 9.8125 72.90625 
L 19.671875 72.90625 
L 19.671875 43.015625 
L 55.515625 43.015625 
L 55.515625 72.90625 
L 65.375 72.90625 
L 65.375 0 
L 55.515625 0 
L 55.515625 34.71875 
L 19.671875 34.71875 
L 19.671875 0 
L 9.8125 0 
z
" id="DejaVuSans-72"/>
    </defs>
    <g style="fill:#ff0000;" transform="translate(89.17562 143.592646)scale(0.12 -0.12)">
     <use xlink:href="#DejaVuSans-72"/>
     <use x="75.195312" xlink:href="#DejaVuSans-79"/>
    </g>
   </g>
   <g id="text_5">
    <!-- NH -->
    <g style="fill:#0000ff;" transform="translate(162.442599 116.543585)scale(0.12 -0.12)">
     <use xlink:href="#DejaVuSans-78"/>
     <use x="74.804688" xlink:href="#DejaVuSans-72"/>
    </g>
   </g>
   <g id="text_6">
    <!-- O -->
    <g style="fill:#ff0000;" transform="translate(220.725164 179.895132)scale(0.12 -0.12)">
     <use xlink:href="#DejaVuSans-79"/>
    </g>
   </g>
   <g id="text_7">
    <!-- OH -->
    <g style="fill:#ff0000;" transform="translate(282.6 175.176232)scale(0.12 -0.12)">
     <use xlink:href="#DejaVuSans-79"/>
     <use x="78.710938" xlink:href="#DejaVuSans-72"/>
    </g>
   </g>
   <g id="text_8">
    <!-- N -->
    <g style="fill:#0000ff;" transform="translate(270.697572 112.134687)scale(0.12 -0.12)">
     <use xlink:href="#DejaVuSans-78"/>
    </g>
   </g>
   <g id="text_9">
    <!-- N -->
    <g style="fill:#0000ff;" transform="translate(228.482798 86.91321)scale(0.12 -0.12)">
     <use xlink:href="#DejaVuSans-78"/>
    </g>
   </g>
   <g id="text_10">
    <!-- N -->
    <g style="fill:#0000ff;" transform="translate(78.04542 126.473735)scale(0.12 -0.12)">
     <use xlink:href="#DejaVuSans-78"/>
    </g>
   </g>
  </g>
 </g>
 <defs>
  <clipPath id="p0be4422a28">
   <rect height="171.781459" width="275.29245" x="7.2" y="7.2"/>
  </clipPath>
 </defs>
</svg>
