<?xml version="1.0" encoding="utf-8" standalone="no"?>
<!DOCTYPE svg PUBLIC "-//W3C//DTD SVG 1.1//EN"
  "http://www.w3.org/Graphics/SVG/1.1/DTD/svg11.dtd">
<!-- Created with matplotlib (https://matplotlib.org/) -->
<svg height="301.41375pt" version="1.1" viewBox="0 0 291.246944 301.41375" width="291.246944pt" xmlns="http://www.w3.org/2000/svg" xmlns:xlink="http://www.w3.org/1999/xlink">
 <defs>
  <style type="text/css">
*{stroke-linecap:butt;stroke-linejoin:round;}
  </style>
 </defs>
 <g id="figure_1">
  <g id="patch_1">
   <path d="M 0 301.41375 
L 291.246944 301.41375 
L 291.246944 0 
L 0 0 
z
" style="fill:#ffffff;"/>
  </g>
  <g id="axes_1">
   <g id="line2d_1">
    <path clip-path="url(#pf87176c000)" d="M 262.161882 148.826693 
L 252.244078 166.004331 
" style="fill:none;stroke:#ff0000;stroke-linecap:square;stroke-width:1.2;"/>
   </g>
   <g id="line2d_2">
    <path clip-path="url(#pf87176c000)" d="M 252.244078 166.004331 
L 242.326273 183.181969 
" style="fill:none;stroke:#000000;stroke-linecap:square;stroke-width:1.2;"/>
   </g>
   <g id="line2d_3">
    <path clip-path="url(#pf87176c000)" d="M 268.911771 152.723857 
L 258.993966 169.901495 
" style="fill:none;stroke:#ff0000;stroke-linecap:square;stroke-width:1.2;"/>
   </g>
   <g id="line2d_4">
    <path clip-path="url(#pf87176c000)" d="M 258.993966 169.901495 
L 249.076162 187.079134 
" style="fill:none;stroke:#000000;stroke-linecap:square;stroke-width:1.2;"/>
   </g>
   <g id="line2d_5">
    <path clip-path="url(#pf87176c000)" d="M 245.701217 185.130551 
L 255.619024 202.309513 
" style="fill:none;stroke:#000000;stroke-linecap:square;stroke-width:1.2;"/>
   </g>
   <g id="line2d_6">
    <path clip-path="url(#pf87176c000)" d="M 255.619024 202.309513 
L 265.53683 219.488475 
" style="fill:none;stroke:#ff0000;stroke-linecap:square;stroke-width:1.2;"/>
   </g>
   <g id="line2d_7">
    <path clip-path="url(#pf87176c000)" d="M 245.701217 185.130551 
L 205.951014 185.130551 
" style="fill:none;stroke:#000000;stroke-linecap:square;stroke-width:1.2;"/>
   </g>
   <g id="line2d_8">
    <path clip-path="url(#pf87176c000)" d="M 205.951014 185.130551 
L 186.075913 150.706875 
" style="fill:none;stroke:#000000;stroke-linecap:square;stroke-width:1.2;"/>
   </g>
   <g id="line2d_9">
    <path clip-path="url(#pf87176c000)" d="M 146.32571 150.706875 
L 146.32571 150.706875 
" style="fill:none;stroke:#000000;stroke-linecap:square;stroke-width:1.5;"/>
   </g>
   <g id="line2d_10">
    <path clip-path="url(#pf87176c000)" d="M 151.668249 151.492543 
L 151.668249 149.921207 
" style="fill:none;stroke:#000000;stroke-linecap:square;stroke-width:1.5;"/>
   </g>
   <g id="line2d_11">
    <path clip-path="url(#pf87176c000)" d="M 157.010789 152.27821 
L 157.010789 149.13554 
" style="fill:none;stroke:#000000;stroke-linecap:square;stroke-width:1.5;"/>
   </g>
   <g id="line2d_12">
    <path clip-path="url(#pf87176c000)" d="M 162.353328 153.063878 
L 162.353328 148.349872 
" style="fill:none;stroke:#000000;stroke-linecap:square;stroke-width:1.5;"/>
   </g>
   <g id="line2d_13">
    <path clip-path="url(#pf87176c000)" d="M 167.695867 153.849545 
L 167.695867 147.564205 
" style="fill:none;stroke:#000000;stroke-linecap:square;stroke-width:1.5;"/>
   </g>
   <g id="line2d_14">
    <path clip-path="url(#pf87176c000)" d="M 173.038407 154.635213 
L 173.038407 146.778537 
" style="fill:none;stroke:#000000;stroke-linecap:square;stroke-width:1.5;"/>
   </g>
   <g id="line2d_15">
    <path clip-path="url(#pf87176c000)" d="M 178.380946 155.42088 
L 178.380946 145.99287 
" style="fill:none;stroke:#000000;stroke-linecap:square;stroke-width:1.5;"/>
   </g>
   <g id="line2d_16">
    <path clip-path="url(#pf87176c000)" d="M 183.723485 156.206548 
L 183.723485 145.207202 
" style="fill:none;stroke:#000000;stroke-linecap:square;stroke-width:1.5;"/>
   </g>
   <g id="line2d_17">
    <path clip-path="url(#pf87176c000)" d="M 186.075913 156.552493 
L 186.075913 144.861257 
" style="fill:none;stroke:#000000;stroke-linecap:square;stroke-width:1.5;"/>
   </g>
   <g id="line2d_18">
    <path clip-path="url(#pf87176c000)" d="M 146.32571 150.706875 
L 126.450609 185.130551 
" style="fill:none;stroke:#000000;stroke-linecap:square;stroke-width:1.2;"/>
   </g>
   <g id="line2d_19">
    <path clip-path="url(#pf87176c000)" d="M 126.450609 185.130551 
L 106.601607 185.130551 
" style="fill:none;stroke:#000000;stroke-linecap:square;stroke-width:1.2;"/>
   </g>
   <g id="line2d_20">
    <path clip-path="url(#pf87176c000)" d="M 106.601607 185.130551 
L 86.752606 185.130551 
" style="fill:none;stroke:#0000ff;stroke-linecap:square;stroke-width:1.2;"/>
   </g>
   <g id="line2d_21">
    <path clip-path="url(#pf87176c000)" d="M 86.660917 185.198951 
L 76.743111 202.377913 
" style="fill:none;stroke:#0000ff;stroke-linecap:square;stroke-width:1.2;"/>
   </g>
   <g id="line2d_22">
    <path clip-path="url(#pf87176c000)" d="M 76.743111 202.377913 
L 66.825304 219.556875 
" style="fill:none;stroke:#000000;stroke-linecap:square;stroke-width:1.2;"/>
   </g>
   <g id="line2d_23">
    <path clip-path="url(#pf87176c000)" d="M 66.825304 219.556875 
L 27.075101 219.556875 
" style="fill:none;stroke:#000000;stroke-linecap:square;stroke-width:1.2;"/>
   </g>
   <g id="line2d_24">
    <path clip-path="url(#pf87176c000)" d="M 62.850284 227.351032 
L 31.050122 227.351032 
" style="fill:none;stroke:#000000;stroke-linecap:square;stroke-width:1.2;"/>
   </g>
   <g id="line2d_25">
    <path clip-path="url(#pf87176c000)" d="M 27.075101 219.556875 
L 7.2 253.980551 
" style="fill:none;stroke:#000000;stroke-linecap:square;stroke-width:1.2;"/>
   </g>
   <g id="line2d_26">
    <path clip-path="url(#pf87176c000)" d="M 7.2 253.980551 
L 17.117806 271.159513 
" style="fill:none;stroke:#000000;stroke-linecap:square;stroke-width:1.2;"/>
   </g>
   <g id="line2d_27">
    <path clip-path="url(#pf87176c000)" d="M 17.117806 271.159513 
L 27.035613 288.338475 
" style="fill:none;stroke:#0000ff;stroke-linecap:square;stroke-width:1.2;"/>
   </g>
   <g id="line2d_28">
    <path clip-path="url(#pf87176c000)" d="M 15.93358 253.519404 
L 23.867825 267.262574 
" style="fill:none;stroke:#000000;stroke-linecap:square;stroke-width:1.2;"/>
   </g>
   <g id="line2d_29">
    <path clip-path="url(#pf87176c000)" d="M 23.867825 267.262574 
L 31.80207 281.005743 
" style="fill:none;stroke:#0000ff;stroke-linecap:square;stroke-width:1.2;"/>
   </g>
   <g id="line2d_30">
    <path clip-path="url(#pf87176c000)" d="M 27.127301 288.406875 
L 46.976303 288.406875 
" style="fill:none;stroke:#0000ff;stroke-linecap:square;stroke-width:1.2;"/>
   </g>
   <g id="line2d_31">
    <path clip-path="url(#pf87176c000)" d="M 46.976303 288.406875 
L 66.825304 288.406875 
" style="fill:none;stroke:#000000;stroke-linecap:square;stroke-width:1.2;"/>
   </g>
   <g id="line2d_32">
    <path clip-path="url(#pf87176c000)" d="M 66.825304 288.406875 
L 86.700406 253.980551 
" style="fill:none;stroke:#000000;stroke-linecap:square;stroke-width:1.2;"/>
   </g>
   <g id="line2d_33">
    <path clip-path="url(#pf87176c000)" d="M 62.062796 281.067303 
L 77.962877 253.526244 
" style="fill:none;stroke:#000000;stroke-linecap:square;stroke-width:1.2;"/>
   </g>
   <g id="line2d_34">
    <path clip-path="url(#pf87176c000)" d="M 86.660914 185.062151 
L 76.743109 167.884513 
" style="fill:none;stroke:#0000ff;stroke-linecap:square;stroke-width:1.2;"/>
   </g>
   <g id="line2d_35">
    <path clip-path="url(#pf87176c000)" d="M 76.743109 167.884513 
L 66.825304 150.706875 
" style="fill:none;stroke:#000000;stroke-linecap:square;stroke-width:1.2;"/>
   </g>
   <g id="line2d_36">
    <path clip-path="url(#pf87176c000)" d="M 66.825304 150.706875 
L 86.700406 116.283199 
" style="fill:none;stroke:#000000;stroke-linecap:square;stroke-width:1.2;"/>
   </g>
   <g id="line2d_37">
    <path clip-path="url(#pf87176c000)" d="M 86.700406 116.283199 
L 126.450609 116.283199 
" style="fill:none;stroke:#000000;stroke-linecap:square;stroke-width:1.2;"/>
   </g>
   <g id="line2d_38">
    <path clip-path="url(#pf87176c000)" d="M 126.450609 116.283199 
L 126.450609 116.283199 
" style="fill:none;stroke:#000000;stroke-linecap:square;stroke-width:1.5;"/>
   </g>
   <g id="line2d_39">
    <path clip-path="url(#pf87176c000)" d="M 129.80339 112.050132 
L 128.439954 111.262989 
" style="fill:none;stroke:#000000;stroke-linecap:square;stroke-width:1.5;"/>
   </g>
   <g id="line2d_40">
    <path clip-path="url(#pf87176c000)" d="M 133.156172 107.817065 
L 130.4293 106.242779 
" style="fill:none;stroke:#000000;stroke-linecap:square;stroke-width:1.5;"/>
   </g>
   <g id="line2d_41">
    <path clip-path="url(#pf87176c000)" d="M 136.508954 103.583998 
L 132.418645 101.22257 
" style="fill:none;stroke:#000000;stroke-linecap:square;stroke-width:1.5;"/>
   </g>
   <g id="line2d_42">
    <path clip-path="url(#pf87176c000)" d="M 139.861736 99.350932 
L 134.407991 96.20236 
" style="fill:none;stroke:#000000;stroke-linecap:square;stroke-width:1.5;"/>
   </g>
   <g id="line2d_43">
    <path clip-path="url(#pf87176c000)" d="M 143.214518 95.117865 
L 136.397336 91.182151 
" style="fill:none;stroke:#000000;stroke-linecap:square;stroke-width:1.5;"/>
   </g>
   <g id="line2d_44">
    <path clip-path="url(#pf87176c000)" d="M 146.5673 90.884798 
L 138.386682 86.161941 
" style="fill:none;stroke:#000000;stroke-linecap:square;stroke-width:1.5;"/>
   </g>
   <g id="line2d_45">
    <path clip-path="url(#pf87176c000)" d="M 149.920082 86.651732 
L 140.376027 81.141731 
" style="fill:none;stroke:#000000;stroke-linecap:square;stroke-width:1.5;"/>
   </g>
   <g id="line2d_46">
    <path clip-path="url(#pf87176c000)" d="M 151.348735 84.84798 
L 141.223707 79.00257 
" style="fill:none;stroke:#000000;stroke-linecap:square;stroke-width:1.5;"/>
   </g>
   <g id="line2d_47">
    <path clip-path="url(#pf87176c000)" d="M 146.37791 81.856875 
L 166.226912 81.856875 
" style="fill:none;stroke:#0000ff;stroke-linecap:square;stroke-width:1.2;"/>
   </g>
   <g id="line2d_48">
    <path clip-path="url(#pf87176c000)" d="M 166.226912 81.856875 
L 186.075913 81.856875 
" style="fill:none;stroke:#000000;stroke-linecap:square;stroke-width:1.2;"/>
   </g>
   <g id="line2d_49">
    <path clip-path="url(#pf87176c000)" d="M 186.075913 81.856875 
L 205.951014 47.433199 
" style="fill:none;stroke:#000000;stroke-linecap:square;stroke-width:1.2;"/>
   </g>
   <g id="line2d_50">
    <path clip-path="url(#pf87176c000)" d="M 205.951014 47.433199 
L 196.033208 30.254237 
" style="fill:none;stroke:#000000;stroke-linecap:square;stroke-width:1.2;"/>
   </g>
   <g id="line2d_51">
    <path clip-path="url(#pf87176c000)" d="M 196.033208 30.254237 
L 186.115402 13.075275 
" style="fill:none;stroke:#ff0000;stroke-linecap:square;stroke-width:1.2;"/>
   </g>
   <g id="line2d_52">
    <path clip-path="url(#pf87176c000)" d="M 186.020563 13.006875 
L 166.173137 13.006875 
" style="fill:none;stroke:#ff0000;stroke-linecap:square;stroke-width:1.2;"/>
   </g>
   <g id="line2d_53">
    <path clip-path="url(#pf87176c000)" d="M 166.173137 13.006875 
L 146.32571 13.006875 
" style="fill:none;stroke:#000000;stroke-linecap:square;stroke-width:1.2;"/>
   </g>
   <g id="line2d_54">
    <path clip-path="url(#pf87176c000)" d="M 146.32571 13.006875 
L 126.450609 47.433199 
" style="fill:none;stroke:#000000;stroke-linecap:square;stroke-width:1.2;"/>
   </g>
   <g id="line2d_55">
    <path clip-path="url(#pf87176c000)" d="M 126.450609 116.283199 
L 146.32571 150.706875 
" style="fill:none;stroke:#000000;stroke-linecap:square;stroke-width:1.2;"/>
   </g>
   <g id="line2d_56">
    <path clip-path="url(#pf87176c000)" d="M 126.450609 47.433199 
L 136.368413 64.610837 
" style="fill:none;stroke:#000000;stroke-linecap:square;stroke-width:1.2;"/>
   </g>
   <g id="line2d_57">
    <path clip-path="url(#pf87176c000)" d="M 136.368413 64.610837 
L 146.286218 81.788475 
" style="fill:none;stroke:#0000ff;stroke-linecap:square;stroke-width:1.2;"/>
   </g>
   <g id="line2d_58">
    <path clip-path="url(#pf87176c000)" d="M 86.700406 253.980551 
L 66.825304 219.556875 
" style="fill:none;stroke:#000000;stroke-linecap:square;stroke-width:1.2;"/>
   </g>
   <g id="text_1">
    <!-- O -->
    <defs>
     <path d="M 39.40625 66.21875 
Q 28.65625 66.21875 22.328125 58.203125 
Q 16.015625 50.203125 16.015625 36.375 
Q 16.015625 22.609375 22.328125 14.59375 
Q 28.65625 6.59375 39.40625 6.59375 
Q 50.140625 6.59375 56.421875 14.59375 
Q 62.703125 22.609375 62.703125 36.375 
Q 62.703125 50.203125 56.421875 58.203125 
Q 50.140625 66.21875 39.40625 66.21875 
z
M 39.40625 74.21875 
Q 54.734375 74.21875 63.90625 63.9375 
Q 73.09375 53.65625 73.09375 36.375 
Q 73.09375 19.140625 63.90625 8.859375 
Q 54.734375 -1.421875 39.40625 -1.421875 
Q 24.03125 -1.421875 14.8125 8.828125 
Q 5.609375 19.09375 5.609375 36.375 
Q 5.609375 53.65625 14.8125 63.9375 
Q 24.03125 74.21875 39.40625 74.21875 
z
" id="DejaVuSans-79"/>
    </defs>
    <g style="fill:#ff0000;" transform="translate(265.576319 154.018125)scale(0.12 -0.12)">
     <use xlink:href="#DejaVuSans-79"/>
    </g>
   </g>
   <g id="text_2">
    <!-- OH -->
    <defs>
     <path d="M 9.8125 72.90625 
L 19.671875 72.90625 
L 19.671875 43.015625 
L 55.515625 43.015625 
L 55.515625 72.90625 
L 65.375 72.90625 
L 65.375 0 
L 55.515625 0 
L 55.515625 34.71875 
L 19.671875 34.71875 
L 19.671875 0 
L 9.8125 0 
z
" id="DejaVuSans-72"/>
    </defs>
    <g style="fill:#ff0000;" transform="translate(265.576319 222.868125)scale(0.12 -0.12)">
     <use xlink:href="#DejaVuSans-79"/>
     <use x="78.710938" xlink:href="#DejaVuSans-72"/>
    </g>
   </g>
   <g id="text_3">
    <!-- N -->
    <defs>
     <path d="M 9.8125 72.90625 
L 23.09375 72.90625 
L 55.421875 11.921875 
L 55.421875 72.90625 
L 64.984375 72.90625 
L 64.984375 0 
L 51.703125 0 
L 19.390625 60.984375 
L 19.390625 0 
L 9.8125 0 
z
" id="DejaVuSans-78"/>
    </defs>
    <g style="fill:#0000ff;" transform="translate(82.211656 188.441801)scale(0.12 -0.12)">
     <use xlink:href="#DejaVuSans-78"/>
    </g>
   </g>
   <g id="text_4">
    <!-- N -->
    <g style="fill:#0000ff;" transform="translate(22.586351 291.718125)scale(0.12 -0.12)">
     <use xlink:href="#DejaVuSans-78"/>
    </g>
   </g>
   <g id="text_5">
    <!-- N -->
    <g style="fill:#0000ff;" transform="translate(141.83696 85.168125)scale(0.12 -0.12)">
     <use xlink:href="#DejaVuSans-78"/>
    </g>
   </g>
   <g id="text_6">
    <!-- O -->
    <g style="fill:#ff0000;" transform="translate(181.352788 16.318125)scale(0.12 -0.12)">
     <use xlink:href="#DejaVuSans-79"/>
    </g>
   </g>
  </g>
 </g>
 <defs>
  <clipPath id="pf87176c000">
   <rect height="275.4" width="261.711771" x="7.2" y="13.006875"/>
  </clipPath>
 </defs>
</svg>
