<?xml version="1.0" encoding="utf-8" standalone="no"?>
<!DOCTYPE svg PUBLIC "-//W3C//DTD SVG 1.1//EN"
  "http://www.w3.org/Graphics/SVG/1.1/DTD/svg11.dtd">
<!-- Created with matplotlib (https://matplotlib.org/) -->
<svg height="227.346191pt" version="1.1" viewBox="0 0 289.8 227.346191" width="289.8pt" xmlns="http://www.w3.org/2000/svg" xmlns:xlink="http://www.w3.org/1999/xlink">
 <defs>
  <style type="text/css">
*{stroke-linecap:butt;stroke-linejoin:round;}
  </style>
 </defs>
 <g id="figure_1">
  <g id="patch_1">
   <path d="M 0 227.346191 
L 289.8 227.346191 
L 289.8 0 
L 0 0 
z
" style="fill:#ffffff;"/>
  </g>
  <g id="axes_1">
   <g id="line2d_1">
    <path clip-path="url(#pa3040d9be5)" d="M 255.851154 147.872842 
L 226.941815 147.872842 
" style="fill:none;stroke:#000000;stroke-linecap:square;stroke-width:1.2;"/>
   </g>
   <g id="line2d_2">
    <path clip-path="url(#pa3040d9be5)" d="M 226.941815 147.872842 
L 218.467635 136.209671 
" style="fill:none;stroke:#000000;stroke-linecap:square;stroke-width:1.2;"/>
   </g>
   <g id="line2d_3">
    <path clip-path="url(#pa3040d9be5)" d="M 218.467635 136.209671 
L 209.993455 124.546501 
" style="fill:none;stroke:#cccc00;stroke-linecap:square;stroke-width:1.2;"/>
   </g>
   <g id="line2d_4">
    <path clip-path="url(#pa3040d9be5)" d="M 209.904355 124.49966 
L 196.179275 128.958916 
" style="fill:none;stroke:#cccc00;stroke-linecap:square;stroke-width:1.2;"/>
   </g>
   <g id="line2d_5">
    <path clip-path="url(#pa3040d9be5)" d="M 196.179275 128.958916 
L 182.454195 133.418172 
" style="fill:none;stroke:#000000;stroke-linecap:square;stroke-width:1.2;"/>
   </g>
   <g id="line2d_6">
    <path clip-path="url(#pa3040d9be5)" d="M 182.454195 133.418172 
L 182.454195 162.327512 
" style="fill:none;stroke:#000000;stroke-linecap:square;stroke-width:1.2;"/>
   </g>
   <g id="line2d_7">
    <path clip-path="url(#pa3040d9be5)" d="M 176.785697 136.309106 
L 176.785697 159.436578 
" style="fill:none;stroke:#000000;stroke-linecap:square;stroke-width:1.2;"/>
   </g>
   <g id="line2d_8">
    <path clip-path="url(#pa3040d9be5)" d="M 182.454195 162.327512 
L 209.948905 171.260498 
" style="fill:none;stroke:#000000;stroke-linecap:square;stroke-width:1.2;"/>
   </g>
   <g id="line2d_9">
    <path clip-path="url(#pa3040d9be5)" d="M 209.948905 171.260498 
L 218.881891 198.755207 
" style="fill:none;stroke:#000000;stroke-linecap:square;stroke-width:1.2;"/>
   </g>
   <g id="line2d_10">
    <path clip-path="url(#pa3040d9be5)" d="M 182.454195 162.327512 
L 157.418707 176.782181 
" style="fill:none;stroke:#000000;stroke-linecap:square;stroke-width:1.2;"/>
   </g>
   <g id="line2d_11">
    <path clip-path="url(#pa3040d9be5)" d="M 154.584458 176.782181 
L 154.584458 191.202651 
" style="fill:none;stroke:#000000;stroke-linecap:square;stroke-width:1.2;"/>
   </g>
   <g id="line2d_12">
    <path clip-path="url(#pa3040d9be5)" d="M 154.584458 191.202651 
L 154.584458 205.623121 
" style="fill:none;stroke:#ff0000;stroke-linecap:square;stroke-width:1.2;"/>
   </g>
   <g id="line2d_13">
    <path clip-path="url(#pa3040d9be5)" d="M 160.252956 176.782181 
L 160.252956 191.202651 
" style="fill:none;stroke:#000000;stroke-linecap:square;stroke-width:1.2;"/>
   </g>
   <g id="line2d_14">
    <path clip-path="url(#pa3040d9be5)" d="M 160.252956 191.202651 
L 160.252956 205.623121 
" style="fill:none;stroke:#ff0000;stroke-linecap:square;stroke-width:1.2;"/>
   </g>
   <g id="line2d_15">
    <path clip-path="url(#pa3040d9be5)" d="M 157.418707 176.782181 
L 144.9261 169.569915 
" style="fill:none;stroke:#000000;stroke-linecap:square;stroke-width:1.2;"/>
   </g>
   <g id="line2d_16">
    <path clip-path="url(#pa3040d9be5)" d="M 144.9261 169.569915 
L 132.433493 162.357648 
" style="fill:none;stroke:#0000ff;stroke-linecap:square;stroke-width:1.2;"/>
   </g>
   <g id="line2d_17">
    <path clip-path="url(#pa3040d9be5)" d="M 132.329093 162.35765 
L 119.837449 169.569916 
" style="fill:none;stroke:#0000ff;stroke-linecap:square;stroke-width:1.2;"/>
   </g>
   <g id="line2d_18">
    <path clip-path="url(#pa3040d9be5)" d="M 119.837449 169.569916 
L 107.345805 176.782181 
" style="fill:none;stroke:#000000;stroke-linecap:square;stroke-width:1.2;"/>
   </g>
   <g id="line2d_19">
    <path clip-path="url(#pa3040d9be5)" d="M 107.345805 176.782181 
L 82.310312 162.327512 
" style="fill:none;stroke:#000000;stroke-linecap:square;stroke-width:1.2;"/>
   </g>
   <g id="line2d_20">
    <path clip-path="url(#pa3040d9be5)" d="M 82.310312 162.327512 
L 57.272898 176.782181 
" style="fill:none;stroke:#000000;stroke-linecap:square;stroke-width:1.2;"/>
   </g>
   <g id="line2d_21">
    <path clip-path="url(#pa3040d9be5)" d="M 57.272898 176.782181 
L 32.237414 162.327512 
" style="fill:none;stroke:#000000;stroke-linecap:square;stroke-width:1.2;"/>
   </g>
   <g id="line2d_22">
    <path clip-path="url(#pa3040d9be5)" d="M 51.935038 180.245741 
L 31.906651 168.682006 
" style="fill:none;stroke:#000000;stroke-linecap:square;stroke-width:1.2;"/>
   </g>
   <g id="line2d_23">
    <path clip-path="url(#pa3040d9be5)" d="M 32.237414 162.327512 
L 7.2 176.782181 
" style="fill:none;stroke:#000000;stroke-linecap:square;stroke-width:1.2;"/>
   </g>
   <g id="line2d_24">
    <path clip-path="url(#pa3040d9be5)" d="M 7.2 176.782181 
L 7.2 205.691521 
" style="fill:none;stroke:#000000;stroke-linecap:square;stroke-width:1.2;"/>
   </g>
   <g id="line2d_25">
    <path clip-path="url(#pa3040d9be5)" d="M 12.868498 179.673115 
L 12.868498 202.800587 
" style="fill:none;stroke:#000000;stroke-linecap:square;stroke-width:1.2;"/>
   </g>
   <g id="line2d_26">
    <path clip-path="url(#pa3040d9be5)" d="M 7.2 205.691521 
L 32.237414 220.146191 
" style="fill:none;stroke:#000000;stroke-linecap:square;stroke-width:1.2;"/>
   </g>
   <g id="line2d_27">
    <path clip-path="url(#pa3040d9be5)" d="M 32.237414 220.146191 
L 57.272898 205.691521 
" style="fill:none;stroke:#000000;stroke-linecap:square;stroke-width:1.2;"/>
   </g>
   <g id="line2d_28">
    <path clip-path="url(#pa3040d9be5)" d="M 31.906651 213.791697 
L 51.935038 202.227961 
" style="fill:none;stroke:#000000;stroke-linecap:square;stroke-width:1.2;"/>
   </g>
   <g id="line2d_29">
    <path clip-path="url(#pa3040d9be5)" d="M 132.381293 162.259112 
L 132.381293 147.838642 
" style="fill:none;stroke:#0000ff;stroke-linecap:square;stroke-width:1.2;"/>
   </g>
   <g id="line2d_30">
    <path clip-path="url(#pa3040d9be5)" d="M 132.381293 147.838642 
L 132.381293 133.418172 
" style="fill:none;stroke:#000000;stroke-linecap:square;stroke-width:1.2;"/>
   </g>
   <g id="line2d_31">
    <path clip-path="url(#pa3040d9be5)" d="M 133.798449 130.963659 
L 121.308379 123.752302 
" style="fill:none;stroke:#000000;stroke-linecap:square;stroke-width:1.2;"/>
   </g>
   <g id="line2d_32">
    <path clip-path="url(#pa3040d9be5)" d="M 121.308379 123.752302 
L 108.81831 116.540946 
" style="fill:none;stroke:#ff0000;stroke-linecap:square;stroke-width:1.2;"/>
   </g>
   <g id="line2d_33">
    <path clip-path="url(#pa3040d9be5)" d="M 130.964137 135.872686 
L 118.474068 128.66133 
" style="fill:none;stroke:#000000;stroke-linecap:square;stroke-width:1.2;"/>
   </g>
   <g id="line2d_34">
    <path clip-path="url(#pa3040d9be5)" d="M 118.474068 128.66133 
L 105.983999 121.449973 
" style="fill:none;stroke:#ff0000;stroke-linecap:square;stroke-width:1.2;"/>
   </g>
   <g id="line2d_35">
    <path clip-path="url(#pa3040d9be5)" d="M 132.381293 133.418172 
L 144.8739 126.205905 
" style="fill:none;stroke:#000000;stroke-linecap:square;stroke-width:1.2;"/>
   </g>
   <g id="line2d_36">
    <path clip-path="url(#pa3040d9be5)" d="M 144.8739 126.205905 
L 157.366507 118.993639 
" style="fill:none;stroke:#0000ff;stroke-linecap:square;stroke-width:1.2;"/>
   </g>
   <g id="line2d_37">
    <path clip-path="url(#pa3040d9be5)" d="M 157.418707 118.895102 
L 157.418707 104.474633 
" style="fill:none;stroke:#0000ff;stroke-linecap:square;stroke-width:1.2;"/>
   </g>
   <g id="line2d_38">
    <path clip-path="url(#pa3040d9be5)" d="M 157.418707 104.474633 
L 157.418707 90.054163 
" style="fill:none;stroke:#000000;stroke-linecap:square;stroke-width:1.2;"/>
   </g>
   <g id="line2d_39">
    <path clip-path="url(#pa3040d9be5)" d="M 157.418707 90.054163 
L 182.454195 75.599493 
" style="fill:none;stroke:#000000;stroke-linecap:square;stroke-width:1.2;"/>
   </g>
   <g id="line2d_40">
    <path clip-path="url(#pa3040d9be5)" d="M 182.454195 75.599493 
L 207.49161 90.054163 
" style="fill:none;stroke:#000000;stroke-linecap:square;stroke-width:1.2;"/>
   </g>
   <g id="line2d_41">
    <path clip-path="url(#pa3040d9be5)" d="M 187.792085 72.135838 
L 207.822017 83.699574 
" style="fill:none;stroke:#000000;stroke-linecap:square;stroke-width:1.2;"/>
   </g>
   <g id="line2d_42">
    <path clip-path="url(#pa3040d9be5)" d="M 207.49161 90.054163 
L 232.527098 75.599493 
" style="fill:none;stroke:#000000;stroke-linecap:square;stroke-width:1.2;"/>
   </g>
   <g id="line2d_43">
    <path clip-path="url(#pa3040d9be5)" d="M 232.527098 75.599493 
L 232.527098 46.690154 
" style="fill:none;stroke:#000000;stroke-linecap:square;stroke-width:1.2;"/>
   </g>
   <g id="line2d_44">
    <path clip-path="url(#pa3040d9be5)" d="M 226.8586 72.708559 
L 226.8586 49.581088 
" style="fill:none;stroke:#000000;stroke-linecap:square;stroke-width:1.2;"/>
   </g>
   <g id="line2d_45">
    <path clip-path="url(#pa3040d9be5)" d="M 232.527098 46.690154 
L 257.562586 32.235484 
" style="fill:none;stroke:#000000;stroke-linecap:square;stroke-width:1.2;"/>
   </g>
   <g id="line2d_46">
    <path clip-path="url(#pa3040d9be5)" d="M 257.562586 32.235484 
L 272.017256 57.270968 
" style="fill:none;stroke:#000000;stroke-linecap:square;stroke-width:1.2;"/>
   </g>
   <g id="line2d_47">
    <path clip-path="url(#pa3040d9be5)" d="M 257.562586 32.235484 
L 243.107916 7.2 
" style="fill:none;stroke:#000000;stroke-linecap:square;stroke-width:1.2;"/>
   </g>
   <g id="line2d_48">
    <path clip-path="url(#pa3040d9be5)" d="M 257.562586 32.235484 
L 282.6 17.780814 
" style="fill:none;stroke:#000000;stroke-linecap:square;stroke-width:1.2;"/>
   </g>
   <g id="line2d_49">
    <path clip-path="url(#pa3040d9be5)" d="M 232.527098 46.690154 
L 207.49161 32.235484 
" style="fill:none;stroke:#000000;stroke-linecap:square;stroke-width:1.2;"/>
   </g>
   <g id="line2d_50">
    <path clip-path="url(#pa3040d9be5)" d="M 207.49161 32.235484 
L 182.454195 46.690154 
" style="fill:none;stroke:#000000;stroke-linecap:square;stroke-width:1.2;"/>
   </g>
   <g id="line2d_51">
    <path clip-path="url(#pa3040d9be5)" d="M 207.822017 38.590073 
L 187.792085 50.153808 
" style="fill:none;stroke:#000000;stroke-linecap:square;stroke-width:1.2;"/>
   </g>
   <g id="line2d_52">
    <path clip-path="url(#pa3040d9be5)" d="M 209.948905 171.260498 
L 226.941815 147.872842 
" style="fill:none;stroke:#000000;stroke-linecap:square;stroke-width:1.2;"/>
   </g>
   <g id="line2d_53">
    <path clip-path="url(#pa3040d9be5)" d="M 207.062358 165.589772 
L 220.656686 146.879648 
" style="fill:none;stroke:#000000;stroke-linecap:square;stroke-width:1.2;"/>
   </g>
   <g id="line2d_54">
    <path clip-path="url(#pa3040d9be5)" d="M 57.272898 205.691521 
L 57.272898 176.782181 
" style="fill:none;stroke:#000000;stroke-linecap:square;stroke-width:1.2;"/>
   </g>
   <g id="line2d_55">
    <path clip-path="url(#pa3040d9be5)" d="M 182.454195 46.690154 
L 182.454195 75.599493 
" style="fill:none;stroke:#000000;stroke-linecap:square;stroke-width:1.2;"/>
   </g>
   <g id="line2d_56">
    <path clip-path="url(#pa3040d9be5)" d="M 157.470907 118.993641 
L 169.962551 126.205907 
" style="fill:none;stroke:#0000ff;stroke-linecap:square;stroke-width:1.2;"/>
   </g>
   <g id="line2d_57">
    <path clip-path="url(#pa3040d9be5)" d="M 169.962551 126.205907 
L 182.454195 133.418172 
" style="fill:none;stroke:#000000;stroke-linecap:square;stroke-width:1.2;"/>
   </g>
   <g id="text_1">
    <!-- S -->
    <defs>
     <path d="M 53.515625 70.515625 
L 53.515625 60.890625 
Q 47.90625 63.578125 42.921875 64.890625 
Q 37.9375 66.21875 33.296875 66.21875 
Q 25.25 66.21875 20.875 63.09375 
Q 16.5 59.96875 16.5 54.203125 
Q 16.5 49.359375 19.40625 46.890625 
Q 22.3125 44.4375 30.421875 42.921875 
L 36.375 41.703125 
Q 47.40625 39.59375 52.65625 34.296875 
Q 57.90625 29 57.90625 20.125 
Q 57.90625 9.515625 50.796875 4.046875 
Q 43.703125 -1.421875 29.984375 -1.421875 
Q 24.8125 -1.421875 18.96875 -0.25 
Q 13.140625 0.921875 6.890625 3.21875 
L 6.890625 13.375 
Q 12.890625 10.015625 18.65625 8.296875 
Q 24.421875 6.59375 29.984375 6.59375 
Q 38.421875 6.59375 43.015625 9.90625 
Q 47.609375 13.234375 47.609375 19.390625 
Q 47.609375 24.75 44.3125 27.78125 
Q 41.015625 30.8125 33.5 32.328125 
L 27.484375 33.5 
Q 16.453125 35.6875 11.515625 40.375 
Q 6.59375 45.0625 6.59375 53.421875 
Q 6.59375 63.09375 13.40625 68.65625 
Q 20.21875 74.21875 32.171875 74.21875 
Q 37.3125 74.21875 42.625 73.28125 
Q 47.953125 72.359375 53.515625 70.515625 
z
" id="DejaVuSans-83"/>
    </defs>
    <g style="fill:#cccc00;" transform="translate(206.139842 127.796436)scale(0.12 -0.12)">
     <use xlink:href="#DejaVuSans-83"/>
    </g>
   </g>
   <g id="text_2">
    <!-- O -->
    <defs>
     <path d="M 39.40625 66.21875 
Q 28.65625 66.21875 22.328125 58.203125 
Q 16.015625 50.203125 16.015625 36.375 
Q 16.015625 22.609375 22.328125 14.59375 
Q 28.65625 6.59375 39.40625 6.59375 
Q 50.140625 6.59375 56.421875 14.59375 
Q 62.703125 22.609375 62.703125 36.375 
Q 62.703125 50.203125 56.421875 58.203125 
Q 50.140625 66.21875 39.40625 66.21875 
z
M 39.40625 74.21875 
Q 54.734375 74.21875 63.90625 63.9375 
Q 73.09375 53.65625 73.09375 36.375 
Q 73.09375 19.140625 63.90625 8.859375 
Q 54.734375 -1.421875 39.40625 -1.421875 
Q 24.03125 -1.421875 14.8125 8.828125 
Q 5.609375 19.09375 5.609375 36.375 
Q 5.609375 53.65625 14.8125 63.9375 
Q 24.03125 74.21875 39.40625 74.21875 
z
" id="DejaVuSans-79"/>
    </defs>
    <g style="fill:#ff0000;" transform="translate(152.695582 214.809646)scale(0.12 -0.12)">
     <use xlink:href="#DejaVuSans-79"/>
    </g>
   </g>
   <g id="text_3">
    <!-- N -->
    <defs>
     <path d="M 9.8125 72.90625 
L 23.09375 72.90625 
L 55.421875 11.921875 
L 55.421875 72.90625 
L 64.984375 72.90625 
L 64.984375 0 
L 51.703125 0 
L 19.390625 60.984375 
L 19.390625 0 
L 9.8125 0 
z
" id="DejaVuSans-78"/>
    </defs>
    <g style="fill:#0000ff;" transform="translate(127.892543 165.638762)scale(0.12 -0.12)">
     <use xlink:href="#DejaVuSans-78"/>
    </g>
   </g>
   <g id="text_4">
    <!-- O -->
    <g style="fill:#ff0000;" transform="translate(97.899555 122.274752)scale(0.12 -0.12)">
     <use xlink:href="#DejaVuSans-79"/>
    </g>
   </g>
   <g id="text_5">
    <!-- N -->
    <g style="fill:#0000ff;" transform="translate(152.929957 122.274752)scale(0.12 -0.12)">
     <use xlink:href="#DejaVuSans-78"/>
    </g>
   </g>
  </g>
 </g>
 <defs>
  <clipPath id="pa3040d9be5">
   <rect height="212.946191" width="275.4" x="7.2" y="7.2"/>
  </clipPath>
 </defs>
</svg>
