<?xml version="1.0" encoding="utf-8" standalone="no"?>
<!DOCTYPE svg PUBLIC "-//W3C//DTD SVG 1.1//EN"
  "http://www.w3.org/Graphics/SVG/1.1/DTD/svg11.dtd">
<!-- Created with matplotlib (https://matplotlib.org/) -->
<svg height="295.606875pt" version="1.1" viewBox="0 0 226.401983 295.606875" width="226.401983pt" xmlns="http://www.w3.org/2000/svg" xmlns:xlink="http://www.w3.org/1999/xlink">
 <defs>
  <style type="text/css">
*{stroke-linecap:butt;stroke-linejoin:round;}
  </style>
 </defs>
 <g id="figure_1">
  <g id="patch_1">
   <path d="M 0 295.606875 
L 226.401983 295.606875 
L 226.401983 0 
L 0 0 
z
" style="fill:#ffffff;"/>
  </g>
  <g id="axes_1">
   <g id="line2d_1">
    <path clip-path="url(#p02184789b5)" d="M 7.2 282.6 
L 24.839157 282.6 
" style="fill:none;stroke:#000000;stroke-linecap:square;stroke-width:1.2;"/>
   </g>
   <g id="line2d_2">
    <path clip-path="url(#p02184789b5)" d="M 24.839157 282.6 
L 42.478314 282.6 
" style="fill:none;stroke:#ff0000;stroke-linecap:square;stroke-width:1.2;"/>
   </g>
   <g id="line2d_3">
    <path clip-path="url(#p02184789b5)" d="M 42.573153 282.5316 
L 51.386824 267.265147 
" style="fill:none;stroke:#ff0000;stroke-linecap:square;stroke-width:1.2;"/>
   </g>
   <g id="line2d_4">
    <path clip-path="url(#p02184789b5)" d="M 51.386824 267.265147 
L 60.200496 251.998693 
" style="fill:none;stroke:#000000;stroke-linecap:square;stroke-width:1.2;"/>
   </g>
   <g id="line2d_5">
    <path clip-path="url(#p02184789b5)" d="M 60.200496 251.998693 
L 42.533664 221.39974 
" style="fill:none;stroke:#000000;stroke-linecap:square;stroke-width:1.2;"/>
   </g>
   <g id="line2d_6">
    <path clip-path="url(#p02184789b5)" d="M 64.433739 245.474637 
L 50.300274 220.995474 
" style="fill:none;stroke:#000000;stroke-linecap:square;stroke-width:1.2;"/>
   </g>
   <g id="line2d_7">
    <path clip-path="url(#p02184789b5)" d="M 42.533664 221.39974 
L 60.200496 190.798433 
" style="fill:none;stroke:#000000;stroke-linecap:square;stroke-width:1.2;"/>
   </g>
   <g id="line2d_8">
    <path clip-path="url(#p02184789b5)" d="M 60.200496 190.798433 
L 95.53416 190.798433 
" style="fill:none;stroke:#000000;stroke-linecap:square;stroke-width:1.2;"/>
   </g>
   <g id="line2d_9">
    <path clip-path="url(#p02184789b5)" d="M 63.733862 183.870264 
L 92.000793 183.870264 
" style="fill:none;stroke:#000000;stroke-linecap:square;stroke-width:1.2;"/>
   </g>
   <g id="line2d_10">
    <path clip-path="url(#p02184789b5)" d="M 95.53416 190.798433 
L 113.200992 221.39974 
" style="fill:none;stroke:#000000;stroke-linecap:square;stroke-width:1.2;"/>
   </g>
   <g id="line2d_11">
    <path clip-path="url(#p02184789b5)" d="M 113.200992 221.39974 
L 95.53416 251.998693 
" style="fill:none;stroke:#000000;stroke-linecap:square;stroke-width:1.2;"/>
   </g>
   <g id="line2d_12">
    <path clip-path="url(#p02184789b5)" d="M 105.434382 220.995474 
L 91.300916 245.474637 
" style="fill:none;stroke:#000000;stroke-linecap:square;stroke-width:1.2;"/>
   </g>
   <g id="line2d_13">
    <path clip-path="url(#p02184789b5)" d="M 95.53416 251.998693 
L 104.347831 267.265147 
" style="fill:none;stroke:#000000;stroke-linecap:square;stroke-width:1.2;"/>
   </g>
   <g id="line2d_14">
    <path clip-path="url(#p02184789b5)" d="M 104.347831 267.265147 
L 113.161503 282.5316 
" style="fill:none;stroke:#ff0000;stroke-linecap:square;stroke-width:1.2;"/>
   </g>
   <g id="line2d_15">
    <path clip-path="url(#p02184789b5)" d="M 113.256342 282.6 
L 130.895499 282.6 
" style="fill:none;stroke:#ff0000;stroke-linecap:square;stroke-width:1.2;"/>
   </g>
   <g id="line2d_16">
    <path clip-path="url(#p02184789b5)" d="M 130.895499 282.6 
L 148.534656 282.6 
" style="fill:none;stroke:#000000;stroke-linecap:square;stroke-width:1.2;"/>
   </g>
   <g id="line2d_17">
    <path clip-path="url(#p02184789b5)" d="M 95.53416 190.798433 
L 113.200992 160.19948 
" style="fill:none;stroke:#000000;stroke-linecap:square;stroke-width:1.2;"/>
   </g>
   <g id="line2d_18">
    <path clip-path="url(#p02184789b5)" d="M 113.200992 160.19948 
L 104.387322 144.934203 
" style="fill:none;stroke:#000000;stroke-linecap:square;stroke-width:1.2;"/>
   </g>
   <g id="line2d_19">
    <path clip-path="url(#p02184789b5)" d="M 104.387322 144.934203 
L 95.573652 129.668926 
" style="fill:none;stroke:#0000ff;stroke-linecap:square;stroke-width:1.2;"/>
   </g>
   <g id="line2d_20">
    <path clip-path="url(#p02184789b5)" d="M 95.573649 129.532126 
L 104.38732 114.265673 
" style="fill:none;stroke:#0000ff;stroke-linecap:square;stroke-width:1.2;"/>
   </g>
   <g id="line2d_21">
    <path clip-path="url(#p02184789b5)" d="M 104.38732 114.265673 
L 113.200992 98.999219 
" style="fill:none;stroke:#000000;stroke-linecap:square;stroke-width:1.2;"/>
   </g>
   <g id="line2d_22">
    <path clip-path="url(#p02184789b5)" d="M 113.200992 98.999219 
L 148.534656 98.999219 
" style="fill:none;stroke:#000000;stroke-linecap:square;stroke-width:1.2;"/>
   </g>
   <g id="line2d_23">
    <path clip-path="url(#p02184789b5)" d="M 148.534656 98.999219 
L 166.201488 68.400266 
" style="fill:none;stroke:#000000;stroke-linecap:square;stroke-width:1.2;"/>
   </g>
   <g id="line2d_24">
    <path clip-path="url(#p02184789b5)" d="M 166.201488 68.400266 
L 201.535151 68.400266 
" style="fill:none;stroke:#000000;stroke-linecap:square;stroke-width:1.2;"/>
   </g>
   <g id="line2d_25">
    <path clip-path="url(#p02184789b5)" d="M 169.734854 61.472096 
L 198.001785 61.472096 
" style="fill:none;stroke:#000000;stroke-linecap:square;stroke-width:1.2;"/>
   </g>
   <g id="line2d_26">
    <path clip-path="url(#p02184789b5)" d="M 201.535151 68.400266 
L 219.201983 37.798959 
" style="fill:none;stroke:#000000;stroke-linecap:square;stroke-width:1.2;"/>
   </g>
   <g id="line2d_27">
    <path clip-path="url(#p02184789b5)" d="M 219.201983 37.798959 
L 201.535151 7.2 
" style="fill:none;stroke:#000000;stroke-linecap:square;stroke-width:1.2;"/>
   </g>
   <g id="line2d_28">
    <path clip-path="url(#p02184789b5)" d="M 211.435373 38.203224 
L 197.301908 13.724056 
" style="fill:none;stroke:#000000;stroke-linecap:square;stroke-width:1.2;"/>
   </g>
   <g id="line2d_29">
    <path clip-path="url(#p02184789b5)" d="M 201.535151 7.2 
L 166.201488 7.2 
" style="fill:none;stroke:#000000;stroke-linecap:square;stroke-width:1.2;"/>
   </g>
   <g id="line2d_30">
    <path clip-path="url(#p02184789b5)" d="M 166.201488 7.2 
L 148.534656 37.798959 
" style="fill:none;stroke:#000000;stroke-linecap:square;stroke-width:1.2;"/>
   </g>
   <g id="line2d_31">
    <path clip-path="url(#p02184789b5)" d="M 170.434731 13.724056 
L 156.301266 38.203224 
" style="fill:none;stroke:#000000;stroke-linecap:square;stroke-width:1.2;"/>
   </g>
   <g id="line2d_32">
    <path clip-path="url(#p02184789b5)" d="M 148.534656 37.798959 
L 113.200992 37.798959 
" style="fill:none;stroke:#000000;stroke-linecap:square;stroke-width:1.2;"/>
   </g>
   <g id="line2d_33">
    <path clip-path="url(#p02184789b5)" d="M 113.200992 37.798959 
L 95.53416 7.2 
" style="fill:none;stroke:#000000;stroke-linecap:square;stroke-width:1.2;"/>
   </g>
   <g id="line2d_34">
    <path clip-path="url(#p02184789b5)" d="M 105.434382 38.203224 
L 91.300916 13.724056 
" style="fill:none;stroke:#000000;stroke-linecap:square;stroke-width:1.2;"/>
   </g>
   <g id="line2d_35">
    <path clip-path="url(#p02184789b5)" d="M 95.53416 7.2 
L 60.200496 7.2 
" style="fill:none;stroke:#000000;stroke-linecap:square;stroke-width:1.2;"/>
   </g>
   <g id="line2d_36">
    <path clip-path="url(#p02184789b5)" d="M 60.200496 7.2 
L 42.533664 37.798959 
" style="fill:none;stroke:#000000;stroke-linecap:square;stroke-width:1.2;"/>
   </g>
   <g id="line2d_37">
    <path clip-path="url(#p02184789b5)" d="M 64.43374 13.724056 
L 50.300274 38.203224 
" style="fill:none;stroke:#000000;stroke-linecap:square;stroke-width:1.2;"/>
   </g>
   <g id="line2d_38">
    <path clip-path="url(#p02184789b5)" d="M 42.533664 37.798959 
L 60.200496 68.400266 
" style="fill:none;stroke:#000000;stroke-linecap:square;stroke-width:1.2;"/>
   </g>
   <g id="line2d_39">
    <path clip-path="url(#p02184789b5)" d="M 60.200496 68.400266 
L 51.386826 83.665543 
" style="fill:none;stroke:#000000;stroke-linecap:square;stroke-width:1.2;"/>
   </g>
   <g id="line2d_40">
    <path clip-path="url(#p02184789b5)" d="M 51.386826 83.665543 
L 42.573156 98.930819 
" style="fill:none;stroke:#ff0000;stroke-linecap:square;stroke-width:1.2;"/>
   </g>
   <g id="line2d_41">
    <path clip-path="url(#p02184789b5)" d="M 60.200496 68.400266 
L 95.53416 68.400266 
" style="fill:none;stroke:#000000;stroke-linecap:square;stroke-width:1.2;"/>
   </g>
   <g id="line2d_42">
    <path clip-path="url(#p02184789b5)" d="M 63.733862 61.472096 
L 92.000793 61.472096 
" style="fill:none;stroke:#000000;stroke-linecap:square;stroke-width:1.2;"/>
   </g>
   <g id="line2d_43">
    <path clip-path="url(#p02184789b5)" d="M 95.48196 129.600526 
L 77.841228 129.600526 
" style="fill:none;stroke:#0000ff;stroke-linecap:square;stroke-width:1.2;"/>
   </g>
   <g id="line2d_44">
    <path clip-path="url(#p02184789b5)" d="M 77.841228 129.600526 
L 60.200496 129.600526 
" style="fill:none;stroke:#000000;stroke-linecap:square;stroke-width:1.2;"/>
   </g>
   <g id="line2d_45">
    <path clip-path="url(#p02184789b5)" d="M 60.200496 129.600526 
L 42.533664 160.19948 
" style="fill:none;stroke:#000000;stroke-linecap:square;stroke-width:1.2;"/>
   </g>
   <g id="line2d_46">
    <path clip-path="url(#p02184789b5)" d="M 95.53416 251.998693 
L 60.200496 251.998693 
" style="fill:none;stroke:#000000;stroke-linecap:square;stroke-width:1.2;"/>
   </g>
   <g id="line2d_47">
    <path clip-path="url(#p02184789b5)" d="M 148.534656 37.798959 
L 166.201488 68.400266 
" style="fill:none;stroke:#000000;stroke-linecap:square;stroke-width:1.2;"/>
   </g>
   <g id="line2d_48">
    <path clip-path="url(#p02184789b5)" d="M 95.53416 68.400266 
L 113.200992 37.798959 
" style="fill:none;stroke:#000000;stroke-linecap:square;stroke-width:1.2;"/>
   </g>
   <g id="line2d_49">
    <path clip-path="url(#p02184789b5)" d="M 42.533664 160.19948 
L 60.200496 190.798433 
" style="fill:none;stroke:#000000;stroke-linecap:square;stroke-width:1.2;"/>
   </g>
   <g id="text_1">
    <!-- O -->
    <defs>
     <path d="M 39.40625 66.21875 
Q 28.65625 66.21875 22.328125 58.203125 
Q 16.015625 50.203125 16.015625 36.375 
Q 16.015625 22.609375 22.328125 14.59375 
Q 28.65625 6.59375 39.40625 6.59375 
Q 50.140625 6.59375 56.421875 14.59375 
Q 62.703125 22.609375 62.703125 36.375 
Q 62.703125 50.203125 56.421875 58.203125 
Q 50.140625 66.21875 39.40625 66.21875 
z
M 39.40625 74.21875 
Q 54.734375 74.21875 63.90625 63.9375 
Q 73.09375 53.65625 73.09375 36.375 
Q 73.09375 19.140625 63.90625 8.859375 
Q 54.734375 -1.421875 39.40625 -1.421875 
Q 24.03125 -1.421875 14.8125 8.828125 
Q 5.609375 19.09375 5.609375 36.375 
Q 5.609375 53.65625 14.8125 63.9375 
Q 24.03125 74.21875 39.40625 74.21875 
z
" id="DejaVuSans-79"/>
    </defs>
    <g style="fill:#ff0000;" transform="translate(37.810539 285.91125)scale(0.12 -0.12)">
     <use xlink:href="#DejaVuSans-79"/>
    </g>
   </g>
   <g id="text_2">
    <!-- O -->
    <g style="fill:#ff0000;" transform="translate(108.477867 285.91125)scale(0.12 -0.12)">
     <use xlink:href="#DejaVuSans-79"/>
    </g>
   </g>
   <g id="text_3">
    <!-- N -->
    <defs>
     <path d="M 9.8125 72.90625 
L 23.09375 72.90625 
L 55.421875 11.921875 
L 55.421875 72.90625 
L 64.984375 72.90625 
L 64.984375 0 
L 51.703125 0 
L 19.390625 60.984375 
L 19.390625 0 
L 9.8125 0 
z
" id="DejaVuSans-78"/>
    </defs>
    <g style="fill:#0000ff;" transform="translate(91.04541 132.911776)scale(0.12 -0.12)">
     <use xlink:href="#DejaVuSans-78"/>
    </g>
   </g>
   <g id="text_4">
    <!-- HO -->
    <defs>
     <path d="M 9.8125 72.90625 
L 19.671875 72.90625 
L 19.671875 43.015625 
L 55.515625 43.015625 
L 55.515625 72.90625 
L 65.375 72.90625 
L 65.375 0 
L 55.515625 0 
L 55.515625 34.71875 
L 19.671875 34.71875 
L 19.671875 0 
L 9.8125 0 
z
" id="DejaVuSans-72"/>
    </defs>
    <g style="fill:#ff0000;" transform="translate(24.063039 102.310469)scale(0.12 -0.12)">
     <use xlink:href="#DejaVuSans-72"/>
     <use x="75.195312" xlink:href="#DejaVuSans-79"/>
    </g>
   </g>
  </g>
 </g>
 <defs>
  <clipPath id="p02184789b5">
   <rect height="275.4" width="212.001983" x="7.2" y="7.2"/>
  </clipPath>
 </defs>
</svg>
