<?xml version="1.0" encoding="utf-8" standalone="no"?>
<!DOCTYPE svg PUBLIC "-//W3C//DTD SVG 1.1//EN"
  "http://www.w3.org/Graphics/SVG/1.1/DTD/svg11.dtd">
<!-- Created with matplotlib (https://matplotlib.org/) -->
<svg height="289.8pt" version="1.1" viewBox="0 0 194.561715 289.8" width="194.561715pt" xmlns="http://www.w3.org/2000/svg" xmlns:xlink="http://www.w3.org/1999/xlink">
 <defs>
  <style type="text/css">
*{stroke-linecap:butt;stroke-linejoin:round;}
  </style>
 </defs>
 <g id="figure_1">
  <g id="patch_1">
   <path d="M 0 289.8 
L 194.561715 289.8 
L 194.561715 0 
L 0 0 
z
" style="fill:#ffffff;"/>
  </g>
  <g id="axes_1">
   <g id="line2d_1">
    <path clip-path="url(#p8bb9ecffd9)" d="M 16.7016 114.371785 
L 36.549217 114.371785 
" style="fill:none;stroke:#ff0000;stroke-linecap:square;stroke-width:1.2;"/>
   </g>
   <g id="line2d_2">
    <path clip-path="url(#p8bb9ecffd9)" d="M 36.549217 114.371785 
L 56.396835 114.371785 
" style="fill:none;stroke:#000000;stroke-linecap:square;stroke-width:1.2;"/>
   </g>
   <g id="line2d_3">
    <path clip-path="url(#p8bb9ecffd9)" d="M 16.7016 106.577553 
L 36.549217 106.577553 
" style="fill:none;stroke:#ff0000;stroke-linecap:square;stroke-width:1.2;"/>
   </g>
   <g id="line2d_4">
    <path clip-path="url(#p8bb9ecffd9)" d="M 36.549217 106.577553 
L 56.396835 106.577553 
" style="fill:none;stroke:#000000;stroke-linecap:square;stroke-width:1.2;"/>
   </g>
   <g id="line2d_5">
    <path clip-path="url(#p8bb9ecffd9)" d="M 56.396835 110.474669 
L 66.314735 127.652473 
" style="fill:none;stroke:#000000;stroke-linecap:square;stroke-width:1.2;"/>
   </g>
   <g id="line2d_6">
    <path clip-path="url(#p8bb9ecffd9)" d="M 66.314735 127.652473 
L 76.232636 144.830276 
" style="fill:none;stroke:#ff0000;stroke-linecap:square;stroke-width:1.2;"/>
   </g>
   <g id="line2d_7">
    <path clip-path="url(#p8bb9ecffd9)" d="M 76.327477 144.898676 
L 96.175095 144.898676 
" style="fill:none;stroke:#ff0000;stroke-linecap:square;stroke-width:1.2;"/>
   </g>
   <g id="line2d_8">
    <path clip-path="url(#p8bb9ecffd9)" d="M 96.175095 144.898676 
L 116.022712 144.898676 
" style="fill:none;stroke:#000000;stroke-linecap:square;stroke-width:1.2;"/>
   </g>
   <g id="line2d_9">
    <path clip-path="url(#p8bb9ecffd9)" d="M 116.022712 144.898676 
L 125.940614 162.077804 
" style="fill:none;stroke:#000000;stroke-linecap:square;stroke-width:1.2;"/>
   </g>
   <g id="line2d_10">
    <path clip-path="url(#p8bb9ecffd9)" d="M 125.940614 162.077804 
L 135.858516 179.256931 
" style="fill:none;stroke:#ff0000;stroke-linecap:square;stroke-width:1.2;"/>
   </g>
   <g id="line2d_11">
    <path clip-path="url(#p8bb9ecffd9)" d="M 135.858513 179.393731 
L 125.940613 196.571538 
" style="fill:none;stroke:#ff0000;stroke-linecap:square;stroke-width:1.2;"/>
   </g>
   <g id="line2d_12">
    <path clip-path="url(#p8bb9ecffd9)" d="M 125.940613 196.571538 
L 116.022712 213.749344 
" style="fill:none;stroke:#000000;stroke-linecap:square;stroke-width:1.2;"/>
   </g>
   <g id="line2d_13">
    <path clip-path="url(#p8bb9ecffd9)" d="M 116.022712 213.749344 
L 76.272127 213.749344 
" style="fill:none;stroke:#000000;stroke-linecap:square;stroke-width:1.2;"/>
   </g>
   <g id="line2d_14">
    <path clip-path="url(#p8bb9ecffd9)" d="M 76.272127 213.749344 
L 56.396835 248.173345 
" style="fill:none;stroke:#000000;stroke-linecap:square;stroke-width:1.2;"/>
   </g>
   <g id="line2d_15">
    <path clip-path="url(#p8bb9ecffd9)" d="M 56.396835 248.173345 
L 76.272127 282.6 
" style="fill:none;stroke:#000000;stroke-linecap:square;stroke-width:1.2;"/>
   </g>
   <g id="line2d_16">
    <path clip-path="url(#p8bb9ecffd9)" d="M 76.272127 282.6 
L 116.022712 282.6 
" style="fill:none;stroke:#000000;stroke-linecap:square;stroke-width:1.2;"/>
   </g>
   <g id="line2d_17">
    <path clip-path="url(#p8bb9ecffd9)" d="M 116.022712 282.6 
L 135.898005 248.173345 
" style="fill:none;stroke:#000000;stroke-linecap:square;stroke-width:1.2;"/>
   </g>
   <g id="line2d_18">
    <path clip-path="url(#p8bb9ecffd9)" d="M 116.022712 144.898676 
L 135.898005 110.474669 
" style="fill:none;stroke:#000000;stroke-linecap:square;stroke-width:1.2;"/>
   </g>
   <g id="line2d_19">
    <path clip-path="url(#p8bb9ecffd9)" d="M 111.260288 137.559074 
L 127.160522 110.019868 
" style="fill:none;stroke:#000000;stroke-linecap:square;stroke-width:1.2;"/>
   </g>
   <g id="line2d_20">
    <path clip-path="url(#p8bb9ecffd9)" d="M 135.898005 110.474669 
L 155.738872 110.474669 
" style="fill:none;stroke:#000000;stroke-linecap:square;stroke-width:1.2;"/>
   </g>
   <g id="line2d_21">
    <path clip-path="url(#p8bb9ecffd9)" d="M 155.738872 110.474669 
L 175.57974 110.474669 
" style="fill:none;stroke:#00cc00;stroke-linecap:square;stroke-width:1.2;"/>
   </g>
   <g id="line2d_22">
    <path clip-path="url(#p8bb9ecffd9)" d="M 135.898005 110.474669 
L 116.022712 76.048015 
" style="fill:none;stroke:#000000;stroke-linecap:square;stroke-width:1.2;"/>
   </g>
   <g id="line2d_23">
    <path clip-path="url(#p8bb9ecffd9)" d="M 116.022712 76.048015 
L 135.898005 41.624007 
" style="fill:none;stroke:#000000;stroke-linecap:square;stroke-width:1.2;"/>
   </g>
   <g id="line2d_24">
    <path clip-path="url(#p8bb9ecffd9)" d="M 111.260288 68.708412 
L 127.160522 41.169206 
" style="fill:none;stroke:#000000;stroke-linecap:square;stroke-width:1.2;"/>
   </g>
   <g id="line2d_25">
    <path clip-path="url(#p8bb9ecffd9)" d="M 135.898005 41.624007 
L 116.022712 7.2 
" style="fill:none;stroke:#000000;stroke-linecap:square;stroke-width:1.2;"/>
   </g>
   <g id="line2d_26">
    <path clip-path="url(#p8bb9ecffd9)" d="M 116.022712 7.2 
L 76.272127 7.2 
" style="fill:none;stroke:#000000;stroke-linecap:square;stroke-width:1.2;"/>
   </g>
   <g id="line2d_27">
    <path clip-path="url(#p8bb9ecffd9)" d="M 112.047654 14.994232 
L 80.247186 14.994232 
" style="fill:none;stroke:#000000;stroke-linecap:square;stroke-width:1.2;"/>
   </g>
   <g id="line2d_28">
    <path clip-path="url(#p8bb9ecffd9)" d="M 76.272127 7.2 
L 56.396835 41.624007 
" style="fill:none;stroke:#000000;stroke-linecap:square;stroke-width:1.2;"/>
   </g>
   <g id="line2d_29">
    <path clip-path="url(#p8bb9ecffd9)" d="M 56.396835 41.624007 
L 76.272127 76.048015 
" style="fill:none;stroke:#000000;stroke-linecap:square;stroke-width:1.2;"/>
   </g>
   <g id="line2d_30">
    <path clip-path="url(#p8bb9ecffd9)" d="M 65.134318 41.169206 
L 81.034552 68.708412 
" style="fill:none;stroke:#000000;stroke-linecap:square;stroke-width:1.2;"/>
   </g>
   <g id="line2d_31">
    <path clip-path="url(#p8bb9ecffd9)" d="M 76.272127 76.048015 
L 56.396835 110.474669 
" style="fill:none;stroke:#000000;stroke-linecap:square;stroke-width:1.2;"/>
   </g>
   <g id="line2d_32">
    <path clip-path="url(#p8bb9ecffd9)" d="M 135.898005 248.173345 
L 116.022712 213.749344 
" style="fill:none;stroke:#000000;stroke-linecap:square;stroke-width:1.2;"/>
   </g>
   <g id="line2d_33">
    <path clip-path="url(#p8bb9ecffd9)" d="M 76.272127 76.048015 
L 116.022712 76.048015 
" style="fill:none;stroke:#000000;stroke-linecap:square;stroke-width:1.2;"/>
   </g>
   <g id="text_1">
    <!-- O -->
    <defs>
     <path d="M 39.40625 66.21875 
Q 28.65625 66.21875 22.328125 58.203125 
Q 16.015625 50.203125 16.015625 36.375 
Q 16.015625 22.609375 22.328125 14.59375 
Q 28.65625 6.59375 39.40625 6.59375 
Q 50.140625 6.59375 56.421875 14.59375 
Q 62.703125 22.609375 62.703125 36.375 
Q 62.703125 50.203125 56.421875 58.203125 
Q 50.140625 66.21875 39.40625 66.21875 
z
M 39.40625 74.21875 
Q 54.734375 74.21875 63.90625 63.9375 
Q 73.09375 53.65625 73.09375 36.375 
Q 73.09375 19.140625 63.90625 8.859375 
Q 54.734375 -1.421875 39.40625 -1.421875 
Q 24.03125 -1.421875 14.8125 8.828125 
Q 5.609375 19.09375 5.609375 36.375 
Q 5.609375 53.65625 14.8125 63.9375 
Q 24.03125 74.21875 39.40625 74.21875 
z
" id="DejaVuSans-79"/>
    </defs>
    <g style="fill:#ff0000;" transform="translate(7.2 113.785919)scale(0.12 -0.12)">
     <use xlink:href="#DejaVuSans-79"/>
    </g>
   </g>
   <g id="text_2">
    <!-- O -->
    <g style="fill:#ff0000;" transform="translate(71.549002 148.209926)scale(0.12 -0.12)">
     <use xlink:href="#DejaVuSans-79"/>
    </g>
   </g>
   <g id="text_3">
    <!-- O -->
    <g style="fill:#ff0000;" transform="translate(131.17488 182.636581)scale(0.12 -0.12)">
     <use xlink:href="#DejaVuSans-79"/>
    </g>
   </g>
   <g id="text_4">
    <!-- Cl -->
    <defs>
     <path d="M 64.40625 67.28125 
L 64.40625 56.890625 
Q 59.421875 61.53125 53.78125 63.8125 
Q 48.140625 66.109375 41.796875 66.109375 
Q 29.296875 66.109375 22.65625 58.46875 
Q 16.015625 50.828125 16.015625 36.375 
Q 16.015625 21.96875 22.65625 14.328125 
Q 29.296875 6.6875 41.796875 6.6875 
Q 48.140625 6.6875 53.78125 8.984375 
Q 59.421875 11.28125 64.40625 15.921875 
L 64.40625 5.609375 
Q 59.234375 2.09375 53.4375 0.328125 
Q 47.65625 -1.421875 41.21875 -1.421875 
Q 24.65625 -1.421875 15.125 8.703125 
Q 5.609375 18.84375 5.609375 36.375 
Q 5.609375 53.953125 15.125 64.078125 
Q 24.65625 74.21875 41.21875 74.21875 
Q 47.75 74.21875 53.53125 72.484375 
Q 59.328125 70.75 64.40625 67.28125 
z
" id="DejaVuSans-67"/>
     <path d="M 9.421875 75.984375 
L 18.40625 75.984375 
L 18.40625 0 
L 9.421875 0 
z
" id="DejaVuSans-108"/>
    </defs>
    <g style="fill:#00cc00;" transform="translate(175.64859 113.785919)scale(0.12 -0.12)">
     <use xlink:href="#DejaVuSans-67"/>
     <use x="69.824219" xlink:href="#DejaVuSans-108"/>
    </g>
   </g>
  </g>
 </g>
 <defs>
  <clipPath id="p8bb9ecffd9">
   <rect height="275.4" width="158.87814" x="16.7016" y="7.2"/>
  </clipPath>
 </defs>
</svg>
