<?xml version="1.0" encoding="utf-8" standalone="no"?>
<!DOCTYPE svg PUBLIC "-//W3C//DTD SVG 1.1//EN"
  "http://www.w3.org/Graphics/SVG/1.1/DTD/svg11.dtd">
<!-- Created with matplotlib (https://matplotlib.org/) -->
<svg height="301.41375pt" version="1.1" viewBox="0 0 225.083276 301.41375" width="225.083276pt" xmlns="http://www.w3.org/2000/svg" xmlns:xlink="http://www.w3.org/1999/xlink">
 <defs>
  <style type="text/css">
*{stroke-linecap:butt;stroke-linejoin:round;}
  </style>
 </defs>
 <g id="figure_1">
  <g id="patch_1">
   <path d="M 0 301.41375 
L 225.083276 301.41375 
L 225.083276 0 
L 0 0 
z
" style="fill:#ffffff;"/>
  </g>
  <g id="axes_1">
   <g id="line2d_1">
    <path clip-path="url(#pfce43f7f85)" d="M 67.102371 231.941325 
L 67.102371 196.607656 
" style="fill:none;stroke:#000000;stroke-linecap:square;stroke-width:1.2;"/>
   </g>
   <g id="line2d_2">
    <path clip-path="url(#pfce43f7f85)" d="M 67.102371 196.607656 
L 67.102371 161.273992 
" style="fill:none;stroke:#000000;stroke-linecap:square;stroke-width:1.2;"/>
   </g>
   <g id="line2d_3">
    <path clip-path="url(#pfce43f7f85)" d="M 67.102371 161.273992 
L 51.822922 152.452138 
" style="fill:none;stroke:#000000;stroke-linecap:square;stroke-width:1.2;"/>
   </g>
   <g id="line2d_4">
    <path clip-path="url(#pfce43f7f85)" d="M 51.822922 152.452138 
L 36.543473 143.630285 
" style="fill:none;stroke:#33cccc;stroke-linecap:square;stroke-width:1.2;"/>
   </g>
   <g id="line2d_5">
    <path clip-path="url(#pfce43f7f85)" d="M 67.102371 196.607656 
L 31.768707 196.607656 
" style="fill:none;stroke:#000000;stroke-linecap:square;stroke-width:1.2;"/>
   </g>
   <g id="line2d_6">
    <path clip-path="url(#pfce43f7f85)" d="M 31.768707 196.607656 
L 22.955035 181.341202 
" style="fill:none;stroke:#000000;stroke-linecap:square;stroke-width:1.2;"/>
   </g>
   <g id="line2d_7">
    <path clip-path="url(#pfce43f7f85)" d="M 22.955035 181.341202 
L 14.141364 166.074749 
" style="fill:none;stroke:#33cccc;stroke-linecap:square;stroke-width:1.2;"/>
   </g>
   <g id="line2d_8">
    <path clip-path="url(#pfce43f7f85)" d="M 67.102371 196.607656 
L 84.743103 196.607656 
" style="fill:none;stroke:#000000;stroke-linecap:square;stroke-width:1.2;"/>
   </g>
   <g id="line2d_9">
    <path clip-path="url(#pfce43f7f85)" d="M 84.743103 196.607656 
L 102.383835 196.607656 
" style="fill:none;stroke:#0000ff;stroke-linecap:square;stroke-width:1.2;"/>
   </g>
   <g id="line2d_10">
    <path clip-path="url(#pfce43f7f85)" d="M 102.475527 196.676056 
L 111.289197 211.941332 
" style="fill:none;stroke:#0000ff;stroke-linecap:square;stroke-width:1.2;"/>
   </g>
   <g id="line2d_11">
    <path clip-path="url(#pfce43f7f85)" d="M 111.289197 211.941332 
L 120.102867 227.206609 
" style="fill:none;stroke:#000000;stroke-linecap:square;stroke-width:1.2;"/>
   </g>
   <g id="line2d_12">
    <path clip-path="url(#pfce43f7f85)" d="M 120.102867 227.206609 
L 155.436531 227.206609 
" style="fill:none;stroke:#000000;stroke-linecap:square;stroke-width:1.2;"/>
   </g>
   <g id="line2d_13">
    <path clip-path="url(#pfce43f7f85)" d="M 123.636233 220.27844 
L 151.903164 220.27844 
" style="fill:none;stroke:#000000;stroke-linecap:square;stroke-width:1.2;"/>
   </g>
   <g id="line2d_14">
    <path clip-path="url(#pfce43f7f85)" d="M 155.436531 227.206609 
L 173.103363 257.807916 
" style="fill:none;stroke:#000000;stroke-linecap:square;stroke-width:1.2;"/>
   </g>
   <g id="line2d_15">
    <path clip-path="url(#pfce43f7f85)" d="M 173.103363 261.272001 
L 190.74252 261.272001 
" style="fill:none;stroke:#000000;stroke-linecap:square;stroke-width:1.2;"/>
   </g>
   <g id="line2d_16">
    <path clip-path="url(#pfce43f7f85)" d="M 190.74252 261.272001 
L 208.381676 261.272001 
" style="fill:none;stroke:#ff0000;stroke-linecap:square;stroke-width:1.2;"/>
   </g>
   <g id="line2d_17">
    <path clip-path="url(#pfce43f7f85)" d="M 173.103363 254.343831 
L 190.74252 254.343831 
" style="fill:none;stroke:#000000;stroke-linecap:square;stroke-width:1.2;"/>
   </g>
   <g id="line2d_18">
    <path clip-path="url(#pfce43f7f85)" d="M 190.74252 254.343831 
L 208.381676 254.343831 
" style="fill:none;stroke:#ff0000;stroke-linecap:square;stroke-width:1.2;"/>
   </g>
   <g id="line2d_19">
    <path clip-path="url(#pfce43f7f85)" d="M 173.103363 257.807916 
L 164.289693 273.073195 
" style="fill:none;stroke:#000000;stroke-linecap:square;stroke-width:1.2;"/>
   </g>
   <g id="line2d_20">
    <path clip-path="url(#pfce43f7f85)" d="M 164.289693 273.073195 
L 155.476023 288.338475 
" style="fill:none;stroke:#ff0000;stroke-linecap:square;stroke-width:1.2;"/>
   </g>
   <g id="line2d_21">
    <path clip-path="url(#pfce43f7f85)" d="M 155.436531 227.206609 
L 173.103363 196.607656 
" style="fill:none;stroke:#000000;stroke-linecap:square;stroke-width:1.2;"/>
   </g>
   <g id="line2d_22">
    <path clip-path="url(#pfce43f7f85)" d="M 173.103363 200.07174 
L 190.74252 200.07174 
" style="fill:none;stroke:#000000;stroke-linecap:square;stroke-width:1.2;"/>
   </g>
   <g id="line2d_23">
    <path clip-path="url(#pfce43f7f85)" d="M 190.74252 200.07174 
L 208.381676 200.07174 
" style="fill:none;stroke:#ff0000;stroke-linecap:square;stroke-width:1.2;"/>
   </g>
   <g id="line2d_24">
    <path clip-path="url(#pfce43f7f85)" d="M 173.103363 193.143571 
L 190.74252 193.143571 
" style="fill:none;stroke:#000000;stroke-linecap:square;stroke-width:1.2;"/>
   </g>
   <g id="line2d_25">
    <path clip-path="url(#pfce43f7f85)" d="M 190.74252 193.143571 
L 208.381676 193.143571 
" style="fill:none;stroke:#ff0000;stroke-linecap:square;stroke-width:1.2;"/>
   </g>
   <g id="line2d_26">
    <path clip-path="url(#pfce43f7f85)" d="M 173.103363 196.607656 
L 155.436531 166.006349 
" style="fill:none;stroke:#000000;stroke-linecap:square;stroke-width:1.2;"/>
   </g>
   <g id="line2d_27">
    <path clip-path="url(#pfce43f7f85)" d="M 155.436531 166.006349 
L 173.103363 135.407395 
" style="fill:none;stroke:#000000;stroke-linecap:square;stroke-width:1.2;"/>
   </g>
   <g id="line2d_28">
    <path clip-path="url(#pfce43f7f85)" d="M 151.203287 159.482293 
L 165.336753 135.00313 
" style="fill:none;stroke:#000000;stroke-linecap:square;stroke-width:1.2;"/>
   </g>
   <g id="line2d_29">
    <path clip-path="url(#pfce43f7f85)" d="M 173.103363 135.407395 
L 155.436531 104.808442 
" style="fill:none;stroke:#000000;stroke-linecap:square;stroke-width:1.2;"/>
   </g>
   <g id="line2d_30">
    <path clip-path="url(#pfce43f7f85)" d="M 155.436531 104.808442 
L 164.250202 89.541989 
" style="fill:none;stroke:#000000;stroke-linecap:square;stroke-width:1.2;"/>
   </g>
   <g id="line2d_31">
    <path clip-path="url(#pfce43f7f85)" d="M 164.250202 89.541989 
L 173.063874 74.275535 
" style="fill:none;stroke:#33cccc;stroke-linecap:square;stroke-width:1.2;"/>
   </g>
   <g id="line2d_32">
    <path clip-path="url(#pfce43f7f85)" d="M 155.436531 104.808442 
L 120.102867 104.808442 
" style="fill:none;stroke:#000000;stroke-linecap:square;stroke-width:1.2;"/>
   </g>
   <g id="line2d_33">
    <path clip-path="url(#pfce43f7f85)" d="M 151.903164 111.736611 
L 123.636233 111.736611 
" style="fill:none;stroke:#000000;stroke-linecap:square;stroke-width:1.2;"/>
   </g>
   <g id="line2d_34">
    <path clip-path="url(#pfce43f7f85)" d="M 120.102867 104.808442 
L 111.289195 89.541989 
" style="fill:none;stroke:#000000;stroke-linecap:square;stroke-width:1.2;"/>
   </g>
   <g id="line2d_35">
    <path clip-path="url(#pfce43f7f85)" d="M 111.289195 89.541989 
L 102.475524 74.275535 
" style="fill:none;stroke:#0000ff;stroke-linecap:square;stroke-width:1.2;"/>
   </g>
   <g id="line2d_36">
    <path clip-path="url(#pfce43f7f85)" d="M 102.475527 74.138735 
L 111.289197 58.873458 
" style="fill:none;stroke:#0000ff;stroke-linecap:square;stroke-width:1.2;"/>
   </g>
   <g id="line2d_37">
    <path clip-path="url(#pfce43f7f85)" d="M 111.289197 58.873458 
L 120.102867 43.608182 
" style="fill:none;stroke:#000000;stroke-linecap:square;stroke-width:1.2;"/>
   </g>
   <g id="line2d_38">
    <path clip-path="url(#pfce43f7f85)" d="M 120.102867 43.608182 
L 102.436035 13.006875 
" style="fill:none;stroke:#000000;stroke-linecap:square;stroke-width:1.2;"/>
   </g>
   <g id="line2d_39">
    <path clip-path="url(#pfce43f7f85)" d="M 102.436035 13.006875 
L 84.821403 13.006875 
" style="fill:none;stroke:#000000;stroke-linecap:square;stroke-width:1.2;"/>
   </g>
   <g id="line2d_40">
    <path clip-path="url(#pfce43f7f85)" d="M 84.821403 13.006875 
L 67.206771 13.006875 
" style="fill:none;stroke:#0000ff;stroke-linecap:square;stroke-width:1.2;"/>
   </g>
   <g id="line2d_41">
    <path clip-path="url(#pfce43f7f85)" d="M 67.062882 13.075275 
L 58.24921 28.341728 
" style="fill:none;stroke:#0000ff;stroke-linecap:square;stroke-width:1.2;"/>
   </g>
   <g id="line2d_42">
    <path clip-path="url(#pfce43f7f85)" d="M 58.24921 28.341728 
L 49.435539 43.608182 
" style="fill:none;stroke:#000000;stroke-linecap:square;stroke-width:1.2;"/>
   </g>
   <g id="line2d_43">
    <path clip-path="url(#pfce43f7f85)" d="M 49.435539 43.608182 
L 67.102371 74.207135 
" style="fill:none;stroke:#000000;stroke-linecap:square;stroke-width:1.2;"/>
   </g>
   <g id="line2d_44">
    <path clip-path="url(#pfce43f7f85)" d="M 120.102867 104.808442 
L 102.436035 135.407395 
" style="fill:none;stroke:#000000;stroke-linecap:square;stroke-width:1.2;"/>
   </g>
   <g id="line2d_45">
    <path clip-path="url(#pfce43f7f85)" d="M 102.436035 135.407395 
L 120.102867 166.006349 
" style="fill:none;stroke:#000000;stroke-linecap:square;stroke-width:1.2;"/>
   </g>
   <g id="line2d_46">
    <path clip-path="url(#pfce43f7f85)" d="M 110.202645 135.00313 
L 124.33611 159.482293 
" style="fill:none;stroke:#000000;stroke-linecap:square;stroke-width:1.2;"/>
   </g>
   <g id="line2d_47">
    <path clip-path="url(#pfce43f7f85)" d="M 120.102867 166.006349 
L 111.289195 181.272802 
" style="fill:none;stroke:#000000;stroke-linecap:square;stroke-width:1.2;"/>
   </g>
   <g id="line2d_48">
    <path clip-path="url(#pfce43f7f85)" d="M 111.289195 181.272802 
L 102.475524 196.539256 
" style="fill:none;stroke:#0000ff;stroke-linecap:square;stroke-width:1.2;"/>
   </g>
   <g id="line2d_49">
    <path clip-path="url(#pfce43f7f85)" d="M 120.102867 166.006349 
L 155.436531 166.006349 
" style="fill:none;stroke:#000000;stroke-linecap:square;stroke-width:1.2;"/>
   </g>
   <g id="line2d_50">
    <path clip-path="url(#pfce43f7f85)" d="M 67.102371 74.207135 
L 84.743103 74.207135 
" style="fill:none;stroke:#000000;stroke-linecap:square;stroke-width:1.2;"/>
   </g>
   <g id="line2d_51">
    <path clip-path="url(#pfce43f7f85)" d="M 84.743103 74.207135 
L 102.383835 74.207135 
" style="fill:none;stroke:#0000ff;stroke-linecap:square;stroke-width:1.2;"/>
   </g>
   <g id="text_1">
    <!-- F -->
    <defs>
     <path d="M 9.8125 72.90625 
L 51.703125 72.90625 
L 51.703125 64.59375 
L 19.671875 64.59375 
L 19.671875 43.109375 
L 48.578125 43.109375 
L 48.578125 34.8125 
L 19.671875 34.8125 
L 19.671875 0 
L 9.8125 0 
z
" id="DejaVuSans-70"/>
    </defs>
    <g style="fill:#33cccc;" transform="translate(29.601548 146.918411)scale(0.12 -0.12)">
     <use xlink:href="#DejaVuSans-70"/>
    </g>
   </g>
   <g id="text_2">
    <!-- F -->
    <g style="fill:#33cccc;" transform="translate(7.2 169.317599)scale(0.12 -0.12)">
     <use xlink:href="#DejaVuSans-70"/>
    </g>
   </g>
   <g id="text_3">
    <!-- N -->
    <defs>
     <path d="M 9.8125 72.90625 
L 23.09375 72.90625 
L 55.421875 11.921875 
L 55.421875 72.90625 
L 64.984375 72.90625 
L 64.984375 0 
L 51.703125 0 
L 19.390625 60.984375 
L 19.390625 0 
L 9.8125 0 
z
" id="DejaVuSans-78"/>
    </defs>
    <g style="fill:#0000ff;" transform="translate(97.947285 199.918906)scale(0.12 -0.12)">
     <use xlink:href="#DejaVuSans-78"/>
    </g>
   </g>
   <g id="text_4">
    <!-- O -->
    <defs>
     <path d="M 39.40625 66.21875 
Q 28.65625 66.21875 22.328125 58.203125 
Q 16.015625 50.203125 16.015625 36.375 
Q 16.015625 22.609375 22.328125 14.59375 
Q 28.65625 6.59375 39.40625 6.59375 
Q 50.140625 6.59375 56.421875 14.59375 
Q 62.703125 22.609375 62.703125 36.375 
Q 62.703125 50.203125 56.421875 58.203125 
Q 50.140625 66.21875 39.40625 66.21875 
z
M 39.40625 74.21875 
Q 54.734375 74.21875 63.90625 63.9375 
Q 73.09375 53.65625 73.09375 36.375 
Q 73.09375 19.140625 63.90625 8.859375 
Q 54.734375 -1.421875 39.40625 -1.421875 
Q 24.03125 -1.421875 14.8125 8.828125 
Q 5.609375 19.09375 5.609375 36.375 
Q 5.609375 53.65625 14.8125 63.9375 
Q 24.03125 74.21875 39.40625 74.21875 
z
" id="DejaVuSans-79"/>
    </defs>
    <g style="fill:#ff0000;" transform="translate(208.437026 261.119166)scale(0.12 -0.12)">
     <use xlink:href="#DejaVuSans-79"/>
    </g>
   </g>
   <g id="text_5">
    <!-- HO -->
    <defs>
     <path d="M 9.8125 72.90625 
L 19.671875 72.90625 
L 19.671875 43.015625 
L 55.515625 43.015625 
L 55.515625 72.90625 
L 65.375 72.90625 
L 65.375 0 
L 55.515625 0 
L 55.515625 34.71875 
L 19.671875 34.71875 
L 19.671875 0 
L 9.8125 0 
z
" id="DejaVuSans-72"/>
    </defs>
    <g style="fill:#ff0000;" transform="translate(136.965906 291.718125)scale(0.12 -0.12)">
     <use xlink:href="#DejaVuSans-72"/>
     <use x="75.195312" xlink:href="#DejaVuSans-79"/>
    </g>
   </g>
   <g id="text_6">
    <!-- O -->
    <g style="fill:#ff0000;" transform="translate(208.437026 199.918906)scale(0.12 -0.12)">
     <use xlink:href="#DejaVuSans-79"/>
    </g>
   </g>
   <g id="text_7">
    <!-- F -->
    <g style="fill:#33cccc;" transform="translate(173.103363 77.518385)scale(0.12 -0.12)">
     <use xlink:href="#DejaVuSans-70"/>
    </g>
   </g>
   <g id="text_8">
    <!-- N -->
    <g style="fill:#0000ff;" transform="translate(97.947285 77.518385)scale(0.12 -0.12)">
     <use xlink:href="#DejaVuSans-78"/>
    </g>
   </g>
   <g id="text_9">
    <!-- NH -->
    <g style="fill:#0000ff;" transform="translate(58.101433 16.318125)scale(0.12 -0.12)">
     <use xlink:href="#DejaVuSans-78"/>
     <use x="74.804688" xlink:href="#DejaVuSans-72"/>
    </g>
   </g>
  </g>
 </g>
 <defs>
  <clipPath id="pfce43f7f85">
   <rect height="275.3316" width="194.240313" x="14.141364" y="13.006875"/>
  </clipPath>
 </defs>
</svg>
