<?xml version="1.0" encoding="utf-8" standalone="no"?>
<!DOCTYPE svg PUBLIC "-//W3C//DTD SVG 1.1//EN"
  "http://www.w3.org/Graphics/SVG/1.1/DTD/svg11.dtd">
<!-- Created with matplotlib (https://matplotlib.org/) -->
<svg height="286.216128pt" version="1.1" viewBox="0 0 317.30475 286.216128" width="317.30475pt" xmlns="http://www.w3.org/2000/svg" xmlns:xlink="http://www.w3.org/1999/xlink">
 <defs>
  <style type="text/css">
*{stroke-linecap:butt;stroke-linejoin:round;}
  </style>
 </defs>
 <g id="figure_1">
  <g id="patch_1">
   <path d="M 0 286.216128 
L 317.30475 286.216128 
L 317.30475 0 
L 0 0 
z
" style="fill:#ffffff;"/>
  </g>
  <g id="axes_1">
   <g id="patch_2">
    <path clip-path="url(#p0aace8d694)" d="M 101.122381 202.24513 
L 118.25817 180.597537 
L 111.300795 176.580886 
z
"/>
   </g>
   <g id="line2d_1">
    <path clip-path="url(#p0aace8d694)" d="M 130.084538 211.586588 
L 155.750786 202.24513 
" style="fill:none;stroke:#000000;stroke-linecap:square;stroke-width:1.2;"/>
   </g>
   <g id="line2d_2">
    <path clip-path="url(#p0aace8d694)" d="M 155.750786 202.24513 
L 160.494352 229.144162 
" style="fill:none;stroke:#000000;stroke-linecap:square;stroke-width:1.2;"/>
   </g>
   <g id="line2d_3">
    <path clip-path="url(#p0aace8d694)" d="M 155.750786 202.24513 
L 183.064989 202.24513 
" style="fill:none;stroke:#000000;stroke-linecap:square;stroke-width:1.2;"/>
   </g>
   <g id="line2d_4">
    <path clip-path="url(#p0aace8d694)" d="M 183.064989 202.24513 
L 196.72209 178.589212 
" style="fill:none;stroke:#000000;stroke-linecap:square;stroke-width:1.2;"/>
   </g>
   <g id="line2d_5">
    <path clip-path="url(#p0aace8d694)" d="M 196.72209 178.589212 
L 224.036292 178.589212 
" style="fill:none;stroke:#000000;stroke-linecap:square;stroke-width:1.2;"/>
   </g>
   <g id="line2d_6">
    <path clip-path="url(#p0aace8d694)" d="M 199.45351 173.233486 
L 221.304872 173.233486 
" style="fill:none;stroke:#000000;stroke-linecap:square;stroke-width:1.2;"/>
   </g>
   <g id="line2d_7">
    <path clip-path="url(#p0aace8d694)" d="M 224.036292 178.589212 
L 237.693393 202.24513 
" style="fill:none;stroke:#000000;stroke-linecap:square;stroke-width:1.2;"/>
   </g>
   <g id="line2d_8">
    <path clip-path="url(#p0aace8d694)" d="M 237.693393 202.24513 
L 224.036292 225.89923 
" style="fill:none;stroke:#000000;stroke-linecap:square;stroke-width:1.2;"/>
   </g>
   <g id="line2d_9">
    <path clip-path="url(#p0aace8d694)" d="M 240.965844 207.288462 
L 230.040163 226.211742 
" style="fill:none;stroke:#000000;stroke-linecap:square;stroke-width:1.2;"/>
   </g>
   <g id="line2d_10">
    <path clip-path="url(#p0aace8d694)" d="M 224.036292 225.89923 
L 237.693393 249.555149 
" style="fill:none;stroke:#000000;stroke-linecap:square;stroke-width:1.2;"/>
   </g>
   <g id="line2d_11">
    <path clip-path="url(#p0aace8d694)" d="M 237.693393 249.555149 
L 265.007596 249.555149 
" style="fill:none;stroke:#000000;stroke-linecap:square;stroke-width:1.2;"/>
   </g>
   <g id="line2d_12">
    <path clip-path="url(#p0aace8d694)" d="M 240.424814 244.199423 
L 262.276176 244.199423 
" style="fill:none;stroke:#000000;stroke-linecap:square;stroke-width:1.2;"/>
   </g>
   <g id="line2d_13">
    <path clip-path="url(#p0aace8d694)" d="M 265.007596 249.555149 
L 278.664697 225.89923 
" style="fill:none;stroke:#000000;stroke-linecap:square;stroke-width:1.2;"/>
   </g>
   <g id="line2d_14">
    <path clip-path="url(#p0aace8d694)" d="M 278.664697 225.89923 
L 265.007596 202.24513 
" style="fill:none;stroke:#000000;stroke-linecap:square;stroke-width:1.2;"/>
   </g>
   <g id="line2d_15">
    <path clip-path="url(#p0aace8d694)" d="M 272.660826 226.211742 
L 261.735145 207.288462 
" style="fill:none;stroke:#000000;stroke-linecap:square;stroke-width:1.2;"/>
   </g>
   <g id="line2d_16">
    <path clip-path="url(#p0aace8d694)" d="M 278.664697 225.89923 
L 291.995486 228.733115 
" style="fill:none;stroke:#000000;stroke-linecap:square;stroke-width:1.2;"/>
   </g>
   <g id="line2d_17">
    <path clip-path="url(#p0aace8d694)" d="M 291.995486 228.733115 
L 305.326275 231.567 
" style="fill:none;stroke:#ff0000;stroke-linecap:square;stroke-width:1.2;"/>
   </g>
   <g id="line2d_18">
    <path clip-path="url(#p0aace8d694)" d="M 305.388815 231.647166 
L 306.812845 245.195407 
" style="fill:none;stroke:#ff0000;stroke-linecap:square;stroke-width:1.2;"/>
   </g>
   <g id="line2d_19">
    <path clip-path="url(#p0aace8d694)" d="M 306.812845 245.195407 
L 308.236875 258.743648 
" style="fill:none;stroke:#000000;stroke-linecap:square;stroke-width:1.2;"/>
   </g>
   <g id="line2d_20">
    <path clip-path="url(#p0aace8d694)" d="M 308.236875 258.743648 
L 295.78833 264.286127 
" style="fill:none;stroke:#000000;stroke-linecap:square;stroke-width:1.2;"/>
   </g>
   <g id="line2d_21">
    <path clip-path="url(#p0aace8d694)" d="M 295.78833 264.286127 
L 283.339785 269.828606 
" style="fill:none;stroke:#ff0000;stroke-linecap:square;stroke-width:1.2;"/>
   </g>
   <g id="line2d_22">
    <path clip-path="url(#p0aace8d694)" d="M 224.036292 178.589212 
L 237.693393 154.935112 
" style="fill:none;stroke:#000000;stroke-linecap:square;stroke-width:1.2;"/>
   </g>
   <g id="line2d_23">
    <path clip-path="url(#p0aace8d694)" d="M 237.693393 154.935112 
L 224.036292 131.281012 
" style="fill:none;stroke:#000000;stroke-linecap:square;stroke-width:1.2;"/>
   </g>
   <g id="line2d_24">
    <path clip-path="url(#p0aace8d694)" d="M 231.689523 155.247624 
L 220.763842 136.324344 
" style="fill:none;stroke:#000000;stroke-linecap:square;stroke-width:1.2;"/>
   </g>
   <g id="line2d_25">
    <path clip-path="url(#p0aace8d694)" d="M 224.036292 131.281012 
L 196.72209 131.281012 
" style="fill:none;stroke:#000000;stroke-linecap:square;stroke-width:1.2;"/>
   </g>
   <g id="line2d_26">
    <path clip-path="url(#p0aace8d694)" d="M 196.72209 131.281012 
L 183.064989 154.935112 
" style="fill:none;stroke:#000000;stroke-linecap:square;stroke-width:1.2;"/>
   </g>
   <g id="line2d_27">
    <path clip-path="url(#p0aace8d694)" d="M 199.99454 136.324344 
L 189.068859 155.247624 
" style="fill:none;stroke:#000000;stroke-linecap:square;stroke-width:1.2;"/>
   </g>
   <g id="line2d_28">
    <path clip-path="url(#p0aace8d694)" d="M 183.064989 154.935112 
L 155.750786 154.935112 
" style="fill:none;stroke:#000000;stroke-linecap:square;stroke-width:1.2;"/>
   </g>
   <g id="line2d_29">
    <path clip-path="url(#p0aace8d694)" d="M 155.750786 154.935112 
L 142.093685 131.281012 
" style="fill:none;stroke:#000000;stroke-linecap:square;stroke-width:1.2;"/>
   </g>
   <g id="line2d_30">
    <path clip-path="url(#p0aace8d694)" d="M 144.41281 132.619896 
L 151.221616 120.826136 
" style="fill:none;stroke:#000000;stroke-linecap:square;stroke-width:1.2;"/>
   </g>
   <g id="line2d_31">
    <path clip-path="url(#p0aace8d694)" d="M 151.221616 120.826136 
L 158.030422 109.032377 
" style="fill:none;stroke:#ff0000;stroke-linecap:square;stroke-width:1.2;"/>
   </g>
   <g id="line2d_32">
    <path clip-path="url(#p0aace8d694)" d="M 139.77456 129.942128 
L 146.583366 118.148369 
" style="fill:none;stroke:#000000;stroke-linecap:square;stroke-width:1.2;"/>
   </g>
   <g id="line2d_33">
    <path clip-path="url(#p0aace8d694)" d="M 146.583366 118.148369 
L 153.392172 106.35461 
" style="fill:none;stroke:#ff0000;stroke-linecap:square;stroke-width:1.2;"/>
   </g>
   <g id="line2d_34">
    <path clip-path="url(#p0aace8d694)" d="M 142.093685 131.281012 
L 128.488784 131.281012 
" style="fill:none;stroke:#000000;stroke-linecap:square;stroke-width:1.2;"/>
   </g>
   <g id="line2d_35">
    <path clip-path="url(#p0aace8d694)" d="M 128.488784 131.281012 
L 114.883882 131.281012 
" style="fill:none;stroke:#0000ff;stroke-linecap:square;stroke-width:1.2;"/>
   </g>
   <g id="line2d_36">
    <path clip-path="url(#p0aace8d694)" d="M 114.739994 131.212612 
L 107.931187 119.418853 
" style="fill:none;stroke:#0000ff;stroke-linecap:square;stroke-width:1.2;"/>
   </g>
   <g id="line2d_37">
    <path clip-path="url(#p0aace8d694)" d="M 107.931187 119.418853 
L 101.122381 107.625093 
" style="fill:none;stroke:#000000;stroke-linecap:square;stroke-width:1.2;"/>
   </g>
   <g id="line2d_38">
    <path clip-path="url(#p0aace8d694)" d="M 101.122381 107.625093 
L 114.779482 83.970993 
" style="fill:none;stroke:#000000;stroke-linecap:square;stroke-width:1.2;"/>
   </g>
   <g id="line2d_39">
    <path clip-path="url(#p0aace8d694)" d="M 97.849931 102.581761 
L 108.775612 83.658482 
" style="fill:none;stroke:#000000;stroke-linecap:square;stroke-width:1.2;"/>
   </g>
   <g id="line2d_40">
    <path clip-path="url(#p0aace8d694)" d="M 114.779482 83.970993 
L 101.122381 60.315075 
" style="fill:none;stroke:#000000;stroke-linecap:square;stroke-width:1.2;"/>
   </g>
   <g id="line2d_41">
    <path clip-path="url(#p0aace8d694)" d="M 101.122381 60.315075 
L 73.808179 60.315075 
" style="fill:none;stroke:#000000;stroke-linecap:square;stroke-width:1.2;"/>
   </g>
   <g id="line2d_42">
    <path clip-path="url(#p0aace8d694)" d="M 98.390961 65.670801 
L 76.539599 65.670801 
" style="fill:none;stroke:#000000;stroke-linecap:square;stroke-width:1.2;"/>
   </g>
   <g id="line2d_43">
    <path clip-path="url(#p0aace8d694)" d="M 73.808179 60.315075 
L 60.151077 36.66097 
" style="fill:none;stroke:#000000;stroke-linecap:square;stroke-width:1.2;"/>
   </g>
   <g id="line2d_44">
    <path clip-path="url(#p0aace8d694)" d="M 60.151077 33.983107 
L 46.521651 33.983107 
" style="fill:none;stroke:#000000;stroke-linecap:square;stroke-width:1.2;"/>
   </g>
   <g id="line2d_45">
    <path clip-path="url(#p0aace8d694)" d="M 46.521651 33.983107 
L 32.892225 33.983107 
" style="fill:none;stroke:#ff0000;stroke-linecap:square;stroke-width:1.2;"/>
   </g>
   <g id="line2d_46">
    <path clip-path="url(#p0aace8d694)" d="M 60.151077 39.338833 
L 46.521651 39.338833 
" style="fill:none;stroke:#000000;stroke-linecap:square;stroke-width:1.2;"/>
   </g>
   <g id="line2d_47">
    <path clip-path="url(#p0aace8d694)" d="M 46.521651 39.338833 
L 32.892225 39.338833 
" style="fill:none;stroke:#ff0000;stroke-linecap:square;stroke-width:1.2;"/>
   </g>
   <g id="line2d_48">
    <path clip-path="url(#p0aace8d694)" d="M 60.151077 36.66097 
L 66.959882 24.868123 
" style="fill:none;stroke:#000000;stroke-linecap:square;stroke-width:1.2;"/>
   </g>
   <g id="line2d_49">
    <path clip-path="url(#p0aace8d694)" d="M 66.959882 24.868123 
L 73.768687 13.075275 
" style="fill:none;stroke:#ff0000;stroke-linecap:square;stroke-width:1.2;"/>
   </g>
   <g id="line2d_50">
    <path clip-path="url(#p0aace8d694)" d="M 73.808179 60.315075 
L 60.151077 83.970993 
" style="fill:none;stroke:#000000;stroke-linecap:square;stroke-width:1.2;"/>
   </g>
   <g id="line2d_51">
    <path clip-path="url(#p0aace8d694)" d="M 60.151077 83.970993 
L 73.808179 107.625093 
" style="fill:none;stroke:#000000;stroke-linecap:square;stroke-width:1.2;"/>
   </g>
   <g id="line2d_52">
    <path clip-path="url(#p0aace8d694)" d="M 66.154948 83.658482 
L 77.080629 102.581761 
" style="fill:none;stroke:#000000;stroke-linecap:square;stroke-width:1.2;"/>
   </g>
   <g id="line2d_53">
    <path clip-path="url(#p0aace8d694)" d="M 155.750786 154.935112 
L 148.941981 166.727962 
" style="fill:none;stroke:#000000;stroke-linecap:square;stroke-width:1.2;"/>
   </g>
   <g id="line2d_54">
    <path clip-path="url(#p0aace8d694)" d="M 148.941981 166.727962 
L 142.133177 178.520812 
" style="fill:none;stroke:#0000ff;stroke-linecap:square;stroke-width:1.2;"/>
   </g>
   <g id="line2d_55">
    <path clip-path="url(#p0aace8d694)" d="M 142.041485 178.589212 
L 128.410484 178.589212 
" style="fill:none;stroke:#0000ff;stroke-linecap:square;stroke-width:1.2;"/>
   </g>
   <g id="line2d_56">
    <path clip-path="url(#p0aace8d694)" d="M 128.410484 178.589212 
L 114.779482 178.589212 
" style="fill:none;stroke:#000000;stroke-linecap:square;stroke-width:1.2;"/>
   </g>
   <g id="line2d_57">
    <path clip-path="url(#p0aace8d694)" d="M 117.098563 177.250251 
L 110.289758 165.457401 
" style="fill:none;stroke:#000000;stroke-linecap:square;stroke-width:1.2;"/>
   </g>
   <g id="line2d_58">
    <path clip-path="url(#p0aace8d694)" d="M 110.289758 165.457401 
L 103.480953 153.664551 
" style="fill:none;stroke:#ff0000;stroke-linecap:square;stroke-width:1.2;"/>
   </g>
   <g id="line2d_59">
    <path clip-path="url(#p0aace8d694)" d="M 112.460402 179.928173 
L 105.651597 168.135323 
" style="fill:none;stroke:#000000;stroke-linecap:square;stroke-width:1.2;"/>
   </g>
   <g id="line2d_60">
    <path clip-path="url(#p0aace8d694)" d="M 105.651597 168.135323 
L 98.842793 156.342473 
" style="fill:none;stroke:#ff0000;stroke-linecap:square;stroke-width:1.2;"/>
   </g>
   <g id="line2d_61">
    <path clip-path="url(#p0aace8d694)" d="M 101.122381 202.24513 
L 114.779482 225.89923 
" style="fill:none;stroke:#000000;stroke-linecap:square;stroke-width:1.2;"/>
   </g>
   <g id="line2d_62">
    <path clip-path="url(#p0aace8d694)" d="M 114.779482 225.89923 
L 101.122381 249.555149 
" style="fill:none;stroke:#000000;stroke-linecap:square;stroke-width:1.2;"/>
   </g>
   <g id="line2d_63">
    <path clip-path="url(#p0aace8d694)" d="M 101.122381 249.555149 
L 73.808179 249.555149 
" style="fill:none;stroke:#000000;stroke-linecap:square;stroke-width:1.2;"/>
   </g>
   <g id="line2d_64">
    <path clip-path="url(#p0aace8d694)" d="M 73.808179 249.555149 
L 73.808179 249.555149 
" style="fill:none;stroke:#000000;stroke-linecap:square;stroke-width:1.5;"/>
   </g>
   <g id="line2d_65">
    <path clip-path="url(#p0aace8d694)" d="M 70.456434 253.789037 
L 71.81727 254.574739 
" style="fill:none;stroke:#000000;stroke-linecap:square;stroke-width:1.5;"/>
   </g>
   <g id="line2d_66">
    <path clip-path="url(#p0aace8d694)" d="M 67.10469 258.022926 
L 69.82636 259.594329 
" style="fill:none;stroke:#000000;stroke-linecap:square;stroke-width:1.5;"/>
   </g>
   <g id="line2d_67">
    <path clip-path="url(#p0aace8d694)" d="M 63.752945 262.256814 
L 67.835451 264.613918 
" style="fill:none;stroke:#000000;stroke-linecap:square;stroke-width:1.5;"/>
   </g>
   <g id="line2d_68">
    <path clip-path="url(#p0aace8d694)" d="M 60.401201 266.490702 
L 65.844542 269.633508 
" style="fill:none;stroke:#000000;stroke-linecap:square;stroke-width:1.5;"/>
   </g>
   <g id="line2d_69">
    <path clip-path="url(#p0aace8d694)" d="M 57.049456 270.72459 
L 63.853633 274.653098 
" style="fill:none;stroke:#000000;stroke-linecap:square;stroke-width:1.5;"/>
   </g>
   <g id="line2d_70">
    <path clip-path="url(#p0aace8d694)" d="M 56.672457 271.200812 
L 63.629698 275.217694 
" style="fill:none;stroke:#000000;stroke-linecap:square;stroke-width:1.5;"/>
   </g>
   <g id="line2d_71">
    <path clip-path="url(#p0aace8d694)" d="M 60.151077 273.209253 
L 46.568451 273.209253 
" style="fill:none;stroke:#000000;stroke-linecap:square;stroke-width:1.2;"/>
   </g>
   <g id="line2d_72">
    <path clip-path="url(#p0aace8d694)" d="M 46.568451 273.209253 
L 32.985825 273.209253 
" style="fill:none;stroke:#0000ff;stroke-linecap:square;stroke-width:1.2;"/>
   </g>
   <g id="line2d_73">
    <path clip-path="url(#p0aace8d694)" d="M 73.808179 249.555149 
L 60.151077 225.89923 
" style="fill:none;stroke:#000000;stroke-linecap:square;stroke-width:1.2;"/>
   </g>
   <g id="line2d_74">
    <path clip-path="url(#p0aace8d694)" d="M 60.151077 225.89923 
L 73.808179 202.24513 
" style="fill:none;stroke:#000000;stroke-linecap:square;stroke-width:1.2;"/>
   </g>
   <g id="line2d_75">
    <path clip-path="url(#p0aace8d694)" d="M 142.133174 178.657612 
L 148.94198 190.451371 
" style="fill:none;stroke:#0000ff;stroke-linecap:square;stroke-width:1.2;"/>
   </g>
   <g id="line2d_76">
    <path clip-path="url(#p0aace8d694)" d="M 148.94198 190.451371 
L 155.750786 202.24513 
" style="fill:none;stroke:#000000;stroke-linecap:square;stroke-width:1.2;"/>
   </g>
   <g id="line2d_77">
    <path clip-path="url(#p0aace8d694)" d="M 73.808179 202.24513 
L 101.122381 202.24513 
" style="fill:none;stroke:#000000;stroke-linecap:square;stroke-width:1.2;"/>
   </g>
   <g id="line2d_78">
    <path clip-path="url(#p0aace8d694)" d="M 183.064989 154.935112 
L 196.72209 178.589212 
" style="fill:none;stroke:#000000;stroke-linecap:square;stroke-width:1.2;"/>
   </g>
   <g id="line2d_79">
    <path clip-path="url(#p0aace8d694)" d="M 73.808179 107.625093 
L 101.122381 107.625093 
" style="fill:none;stroke:#000000;stroke-linecap:square;stroke-width:1.2;"/>
   </g>
   <g id="line2d_80">
    <path clip-path="url(#p0aace8d694)" d="M 265.007596 202.24513 
L 237.693393 202.24513 
" style="fill:none;stroke:#000000;stroke-linecap:square;stroke-width:1.2;"/>
   </g>
   <g id="line2d_81">
    <path clip-path="url(#p0aace8d694)" d="M 283.229085 269.791778 
L 274.118341 259.673464 
" style="fill:none;stroke:#ff0000;stroke-linecap:square;stroke-width:1.2;"/>
   </g>
   <g id="line2d_82">
    <path clip-path="url(#p0aace8d694)" d="M 274.118341 259.673464 
L 265.007596 249.555149 
" style="fill:none;stroke:#000000;stroke-linecap:square;stroke-width:1.2;"/>
   </g>
   <g id="text_1">
    <!-- O -->
    <defs>
     <path d="M 39.40625 66.21875 
Q 28.65625 66.21875 22.328125 58.203125 
Q 16.015625 50.203125 16.015625 36.375 
Q 16.015625 22.609375 22.328125 14.59375 
Q 28.65625 6.59375 39.40625 6.59375 
Q 50.140625 6.59375 56.421875 14.59375 
Q 62.703125 22.609375 62.703125 36.375 
Q 62.703125 50.203125 56.421875 58.203125 
Q 50.140625 66.21875 39.40625 66.21875 
z
M 39.40625 74.21875 
Q 54.734375 74.21875 63.90625 63.9375 
Q 73.09375 53.65625 73.09375 36.375 
Q 73.09375 19.140625 63.90625 8.859375 
Q 54.734375 -1.421875 39.40625 -1.421875 
Q 24.03125 -1.421875 14.8125 8.828125 
Q 5.609375 19.09375 5.609375 36.375 
Q 5.609375 53.65625 14.8125 63.9375 
Q 24.03125 74.21875 39.40625 74.21875 
z
" id="DejaVuSans-79"/>
    </defs>
    <g style="fill:#ff0000;" transform="translate(300.6585 234.890016)scale(0.12 -0.12)">
     <use xlink:href="#DejaVuSans-79"/>
    </g>
   </g>
   <g id="text_2">
    <!-- O -->
    <g style="fill:#ff0000;" transform="translate(278.56131 273.164499)scale(0.12 -0.12)">
     <use xlink:href="#DejaVuSans-79"/>
    </g>
   </g>
   <g id="text_3">
    <!-- O -->
    <g style="fill:#ff0000;" transform="translate(155.750786 110.936343)scale(0.12 -0.12)">
     <use xlink:href="#DejaVuSans-79"/>
    </g>
   </g>
   <g id="text_4">
    <!-- NH -->
    <defs>
     <path d="M 9.8125 72.90625 
L 23.09375 72.90625 
L 55.421875 11.921875 
L 55.421875 72.90625 
L 64.984375 72.90625 
L 64.984375 0 
L 51.703125 0 
L 19.390625 60.984375 
L 19.390625 0 
L 9.8125 0 
z
" id="DejaVuSans-78"/>
     <path d="M 9.8125 72.90625 
L 19.671875 72.90625 
L 19.671875 43.015625 
L 55.515625 43.015625 
L 55.515625 72.90625 
L 65.375 72.90625 
L 65.375 0 
L 55.515625 0 
L 55.515625 34.71875 
L 19.671875 34.71875 
L 19.671875 0 
L 9.8125 0 
z
" id="DejaVuSans-72"/>
    </defs>
    <g style="fill:#0000ff;" transform="translate(105.778545 134.592262)scale(0.12 -0.12)">
     <use xlink:href="#DejaVuSans-78"/>
     <use x="74.804688" xlink:href="#DejaVuSans-72"/>
    </g>
   </g>
   <g id="text_5">
    <!-- O -->
    <g style="fill:#ff0000;" transform="translate(23.390625 39.97222)scale(0.12 -0.12)">
     <use xlink:href="#DejaVuSans-79"/>
    </g>
   </g>
   <g id="text_6">
    <!-- OH -->
    <g style="fill:#ff0000;" transform="translate(73.808179 16.318125)scale(0.12 -0.12)">
     <use xlink:href="#DejaVuSans-79"/>
     <use x="78.710938" xlink:href="#DejaVuSans-72"/>
    </g>
   </g>
   <g id="text_7">
    <!-- N -->
    <g style="fill:#0000ff;" transform="translate(137.604935 181.900462)scale(0.12 -0.12)">
     <use xlink:href="#DejaVuSans-78"/>
    </g>
   </g>
   <g id="text_8">
    <!-- O -->
    <g style="fill:#ff0000;" transform="translate(91.676131 158.246362)scale(0.12 -0.12)">
     <use xlink:href="#DejaVuSans-79"/>
    </g>
   </g>
   <g id="text_9">
    <!-- H2N -->
    <defs>
     <path d="M 19.1875 8.296875 
L 53.609375 8.296875 
L 53.609375 0 
L 7.328125 0 
L 7.328125 8.296875 
Q 12.9375 14.109375 22.625 23.890625 
Q 32.328125 33.6875 34.8125 36.53125 
Q 39.546875 41.84375 41.421875 45.53125 
Q 43.3125 49.21875 43.3125 52.78125 
Q 43.3125 58.59375 39.234375 62.25 
Q 35.15625 65.921875 28.609375 65.921875 
Q 23.96875 65.921875 18.8125 64.3125 
Q 13.671875 62.703125 7.8125 59.421875 
L 7.8125 69.390625 
Q 13.765625 71.78125 18.9375 73 
Q 24.125 74.21875 28.421875 74.21875 
Q 39.75 74.21875 46.484375 68.546875 
Q 53.21875 62.890625 53.21875 53.421875 
Q 53.21875 48.921875 51.53125 44.890625 
Q 49.859375 40.875 45.40625 35.40625 
Q 44.1875 33.984375 37.640625 27.21875 
Q 31.109375 20.453125 19.1875 8.296875 
z
" id="DejaVuSans-50"/>
    </defs>
    <g style="fill:#0000ff;" transform="translate(7.2 276.520503)scale(0.12 -0.12)">
     <use xlink:href="#DejaVuSans-72"/>
     <use x="75.195312" xlink:href="#DejaVuSans-50"/>
     <use x="138.818359" xlink:href="#DejaVuSans-78"/>
    </g>
   </g>
  </g>
 </g>
 <defs>
  <clipPath id="p0aace8d694">
   <rect height="262.142419" width="275.34465" x="32.892225" y="13.075275"/>
  </clipPath>
 </defs>
</svg>
