<?xml version="1.0" encoding="utf-8" standalone="no"?>
<!DOCTYPE svg PUBLIC "-//W3C//DTD SVG 1.1//EN"
  "http://www.w3.org/Graphics/SVG/1.1/DTD/svg11.dtd">
<!-- Created with matplotlib (https://matplotlib.org/) -->
<svg height="275.136492pt" version="1.1" viewBox="0 0 318.351221 275.136492" width="318.351221pt" xmlns="http://www.w3.org/2000/svg" xmlns:xlink="http://www.w3.org/1999/xlink">
 <defs>
  <style type="text/css">
*{stroke-linecap:butt;stroke-linejoin:round;}
  </style>
 </defs>
 <g id="figure_1">
  <g id="patch_1">
   <path d="M 0 275.136492 
L 318.351221 275.136492 
L 318.351221 0 
L 0 0 
z
" style="fill:#ffffff;"/>
  </g>
  <g id="axes_1">
   <g id="patch_2">
    <path clip-path="url(#p5bd5c27638)" d="M 233.026963 154.108852 
L 247.726902 182.185057 
L 255.18749 176.764371 
z
"/>
   </g>
   <g id="line2d_1">
    <path clip-path="url(#p5bd5c27638)" d="M 205.873879 31.673311 
L 190.196578 58.826397 
" style="fill:none;stroke:#000000;stroke-linecap:square;stroke-width:1.2;"/>
   </g>
   <g id="line2d_2">
    <path clip-path="url(#p5bd5c27638)" d="M 190.196578 58.826397 
L 174.519278 85.981571 
" style="fill:none;stroke:#000000;stroke-linecap:square;stroke-width:1.2;"/>
   </g>
   <g id="line2d_3">
    <path clip-path="url(#p5bd5c27638)" d="M 190.196578 58.826397 
L 163.043489 43.149096 
" style="fill:none;stroke:#000000;stroke-linecap:square;stroke-width:1.2;"/>
   </g>
   <g id="line2d_4">
    <path clip-path="url(#p5bd5c27638)" d="M 190.196578 58.826397 
L 217.349663 74.503697 
" style="fill:none;stroke:#000000;stroke-linecap:square;stroke-width:1.2;"/>
   </g>
   <g id="line2d_5">
    <path clip-path="url(#p5bd5c27638)" d="M 217.349663 105.858297 
L 217.349663 105.858297 
" style="fill:none;stroke:#000000;stroke-linecap:square;stroke-width:1.5;"/>
   </g>
   <g id="line2d_6">
    <path clip-path="url(#p5bd5c27638)" d="M 218.13533 100.515757 
L 216.563995 100.515757 
" style="fill:none;stroke:#000000;stroke-linecap:square;stroke-width:1.5;"/>
   </g>
   <g id="line2d_7">
    <path clip-path="url(#p5bd5c27638)" d="M 218.920998 95.173218 
L 215.778328 95.173218 
" style="fill:none;stroke:#000000;stroke-linecap:square;stroke-width:1.5;"/>
   </g>
   <g id="line2d_8">
    <path clip-path="url(#p5bd5c27638)" d="M 219.706666 89.830679 
L 214.99266 89.830679 
" style="fill:none;stroke:#000000;stroke-linecap:square;stroke-width:1.5;"/>
   </g>
   <g id="line2d_9">
    <path clip-path="url(#p5bd5c27638)" d="M 220.492333 84.48814 
L 214.206993 84.48814 
" style="fill:none;stroke:#000000;stroke-linecap:square;stroke-width:1.5;"/>
   </g>
   <g id="line2d_10">
    <path clip-path="url(#p5bd5c27638)" d="M 221.278001 79.1456 
L 213.421325 79.1456 
" style="fill:none;stroke:#000000;stroke-linecap:square;stroke-width:1.5;"/>
   </g>
   <g id="line2d_11">
    <path clip-path="url(#p5bd5c27638)" d="M 221.960634 74.503697 
L 212.738692 74.503697 
" style="fill:none;stroke:#000000;stroke-linecap:square;stroke-width:1.5;"/>
   </g>
   <g id="line2d_12">
    <path clip-path="url(#p5bd5c27638)" d="M 217.349663 105.858297 
L 204.713797 115.039214 
" style="fill:none;stroke:#000000;stroke-linecap:square;stroke-width:1.2;"/>
   </g>
   <g id="line2d_13">
    <path clip-path="url(#p5bd5c27638)" d="M 204.713797 115.039214 
L 192.077931 124.220132 
" style="fill:none;stroke:#0000ff;stroke-linecap:square;stroke-width:1.2;"/>
   </g>
   <g id="line2d_14">
    <path clip-path="url(#p5bd5c27638)" d="M 192.006014 124.356932 
L 196.839188 139.232892 
" style="fill:none;stroke:#0000ff;stroke-linecap:square;stroke-width:1.2;"/>
   </g>
   <g id="line2d_15">
    <path clip-path="url(#p5bd5c27638)" d="M 196.839188 139.232892 
L 201.672363 154.108852 
" style="fill:none;stroke:#000000;stroke-linecap:square;stroke-width:1.2;"/>
   </g>
   <g id="line2d_16">
    <path clip-path="url(#p5bd5c27638)" d="M 201.672363 154.108852 
L 201.672363 154.108852 
" style="fill:none;stroke:#000000;stroke-linecap:square;stroke-width:1.5;"/>
   </g>
   <g id="line2d_17">
    <path clip-path="url(#p5bd5c27638)" d="M 197.896576 157.969349 
L 199.167898 158.892956 
" style="fill:none;stroke:#000000;stroke-linecap:square;stroke-width:1.5;"/>
   </g>
   <g id="line2d_18">
    <path clip-path="url(#p5bd5c27638)" d="M 194.12079 161.829846 
L 196.663433 163.677061 
" style="fill:none;stroke:#000000;stroke-linecap:square;stroke-width:1.5;"/>
   </g>
   <g id="line2d_19">
    <path clip-path="url(#p5bd5c27638)" d="M 190.345004 165.690343 
L 194.158968 168.461165 
" style="fill:none;stroke:#000000;stroke-linecap:square;stroke-width:1.5;"/>
   </g>
   <g id="line2d_20">
    <path clip-path="url(#p5bd5c27638)" d="M 186.569217 169.55084 
L 191.654503 173.24527 
" style="fill:none;stroke:#000000;stroke-linecap:square;stroke-width:1.5;"/>
   </g>
   <g id="line2d_21">
    <path clip-path="url(#p5bd5c27638)" d="M 182.793431 173.411337 
L 189.150038 178.029374 
" style="fill:none;stroke:#000000;stroke-linecap:square;stroke-width:1.5;"/>
   </g>
   <g id="line2d_22">
    <path clip-path="url(#p5bd5c27638)" d="M 179.513776 176.764572 
L 186.974656 182.184856 
" style="fill:none;stroke:#000000;stroke-linecap:square;stroke-width:1.5;"/>
   </g>
   <g id="line2d_23">
    <path clip-path="url(#p5bd5c27638)" d="M 180.435963 180.724944 
L 186.797218 195.01353 
" style="fill:none;stroke:#000000;stroke-linecap:square;stroke-width:1.2;"/>
   </g>
   <g id="line2d_24">
    <path clip-path="url(#p5bd5c27638)" d="M 186.797218 195.01353 
L 193.158474 209.302116 
" style="fill:none;stroke:#ff0000;stroke-linecap:square;stroke-width:1.2;"/>
   </g>
   <g id="line2d_25">
    <path clip-path="url(#p5bd5c27638)" d="M 186.052468 178.224485 
L 192.413723 192.513071 
" style="fill:none;stroke:#000000;stroke-linecap:square;stroke-width:1.2;"/>
   </g>
   <g id="line2d_26">
    <path clip-path="url(#p5bd5c27638)" d="M 192.413723 192.513071 
L 198.774979 206.801657 
" style="fill:none;stroke:#ff0000;stroke-linecap:square;stroke-width:1.2;"/>
   </g>
   <g id="line2d_27">
    <path clip-path="url(#p5bd5c27638)" d="M 183.244216 179.474714 
L 167.70482 177.841402 
" style="fill:none;stroke:#000000;stroke-linecap:square;stroke-width:1.2;"/>
   </g>
   <g id="line2d_28">
    <path clip-path="url(#p5bd5c27638)" d="M 167.70482 177.841402 
L 152.165424 176.208091 
" style="fill:none;stroke:#0000ff;stroke-linecap:square;stroke-width:1.2;"/>
   </g>
   <g id="line2d_29">
    <path clip-path="url(#p5bd5c27638)" d="M 152.01133 176.265518 
L 142.82106 188.9153 
" style="fill:none;stroke:#0000ff;stroke-linecap:square;stroke-width:1.2;"/>
   </g>
   <g id="line2d_30">
    <path clip-path="url(#p5bd5c27638)" d="M 142.82106 188.9153 
L 133.630789 201.565083 
" style="fill:none;stroke:#000000;stroke-linecap:square;stroke-width:1.2;"/>
   </g>
   <g id="line2d_31">
    <path clip-path="url(#p5bd5c27638)" d="M 133.630789 201.565083 
L 102.447597 198.287476 
" style="fill:none;stroke:#000000;stroke-linecap:square;stroke-width:1.2;"/>
   </g>
   <g id="line2d_32">
    <path clip-path="url(#p5bd5c27638)" d="M 102.447597 198.287476 
L 81.467183 221.588132 
" style="fill:none;stroke:#000000;stroke-linecap:square;stroke-width:1.2;"/>
   </g>
   <g id="line2d_33">
    <path clip-path="url(#p5bd5c27638)" d="M 81.467183 221.588132 
L 52.823705 208.835165 
" style="fill:none;stroke:#000000;stroke-linecap:square;stroke-width:1.2;"/>
   </g>
   <g id="line2d_34">
    <path clip-path="url(#p5bd5c27638)" d="M 52.823705 208.835165 
L 39.30094 216.642767 
" style="fill:none;stroke:#000000;stroke-linecap:square;stroke-width:1.2;"/>
   </g>
   <g id="line2d_35">
    <path clip-path="url(#p5bd5c27638)" d="M 39.30094 216.642767 
L 25.778175 224.450369 
" style="fill:none;stroke:#ff0000;stroke-linecap:square;stroke-width:1.2;"/>
   </g>
   <g id="line2d_36">
    <path clip-path="url(#p5bd5c27638)" d="M 52.823705 208.835165 
L 56.101311 177.651973 
" style="fill:none;stroke:#000000;stroke-linecap:square;stroke-width:1.2;"/>
   </g>
   <g id="line2d_37">
    <path clip-path="url(#p5bd5c27638)" d="M 56.101311 177.651973 
L 44.488966 167.195966 
" style="fill:none;stroke:#000000;stroke-linecap:square;stroke-width:1.2;"/>
   </g>
   <g id="line2d_38">
    <path clip-path="url(#p5bd5c27638)" d="M 44.488966 167.195966 
L 32.87662 156.739959 
" style="fill:none;stroke:#ff0000;stroke-linecap:square;stroke-width:1.2;"/>
   </g>
   <g id="line2d_39">
    <path clip-path="url(#p5bd5c27638)" d="M 56.101311 177.651973 
L 86.770297 171.132304 
" style="fill:none;stroke:#000000;stroke-linecap:square;stroke-width:1.2;"/>
   </g>
   <g id="line2d_40">
    <path clip-path="url(#p5bd5c27638)" d="M 201.672363 154.108852 
L 233.026963 154.108852 
" style="fill:none;stroke:#000000;stroke-linecap:square;stroke-width:1.2;"/>
   </g>
   <g id="line2d_41">
    <path clip-path="url(#p5bd5c27638)" d="M 251.457196 179.474714 
L 282.640391 176.197118 
" style="fill:none;stroke:#000000;stroke-linecap:square;stroke-width:1.2;"/>
   </g>
   <g id="line2d_42">
    <path clip-path="url(#p5bd5c27638)" d="M 255.218174 185.261234 
L 280.16473 182.639157 
" style="fill:none;stroke:#000000;stroke-linecap:square;stroke-width:1.2;"/>
   </g>
   <g id="line2d_43">
    <path clip-path="url(#p5bd5c27638)" d="M 282.640391 176.197118 
L 301.070625 201.565083 
" style="fill:none;stroke:#000000;stroke-linecap:square;stroke-width:1.2;"/>
   </g>
   <g id="line2d_44">
    <path clip-path="url(#p5bd5c27638)" d="M 301.070625 201.565083 
L 288.317664 230.208552 
" style="fill:none;stroke:#000000;stroke-linecap:square;stroke-width:1.2;"/>
   </g>
   <g id="line2d_45">
    <path clip-path="url(#p5bd5c27638)" d="M 294.178892 201.928818 
L 283.976524 224.843593 
" style="fill:none;stroke:#000000;stroke-linecap:square;stroke-width:1.2;"/>
   </g>
   <g id="line2d_46">
    <path clip-path="url(#p5bd5c27638)" d="M 288.317664 230.208552 
L 257.134469 233.486158 
" style="fill:none;stroke:#000000;stroke-linecap:square;stroke-width:1.2;"/>
   </g>
   <g id="line2d_47">
    <path clip-path="url(#p5bd5c27638)" d="M 257.134469 233.486158 
L 250.773215 247.773688 
" style="fill:none;stroke:#000000;stroke-linecap:square;stroke-width:1.2;"/>
   </g>
   <g id="line2d_48">
    <path clip-path="url(#p5bd5c27638)" d="M 250.773215 247.773688 
L 244.411961 262.061217 
" style="fill:none;stroke:#00cc00;stroke-linecap:square;stroke-width:1.2;"/>
   </g>
   <g id="line2d_49">
    <path clip-path="url(#p5bd5c27638)" d="M 257.134469 233.486158 
L 238.704234 208.120286 
" style="fill:none;stroke:#000000;stroke-linecap:square;stroke-width:1.2;"/>
   </g>
   <g id="line2d_50">
    <path clip-path="url(#p5bd5c27638)" d="M 260.265171 227.335781 
L 245.520983 207.043083 
" style="fill:none;stroke:#000000;stroke-linecap:square;stroke-width:1.2;"/>
   </g>
   <g id="line2d_51">
    <path clip-path="url(#p5bd5c27638)" d="M 233.026963 154.108852 
L 242.717623 124.288532 
" style="fill:none;stroke:#000000;stroke-linecap:square;stroke-width:1.2;"/>
   </g>
   <g id="line2d_52">
    <path clip-path="url(#p5bd5c27638)" d="M 242.717623 124.288532 
L 242.717623 124.288532 
" style="fill:none;stroke:#000000;stroke-linecap:square;stroke-width:1.5;"/>
   </g>
   <g id="line2d_53">
    <path clip-path="url(#p5bd5c27638)" d="M 246.577939 128.064504 
L 247.501579 126.793281 
" style="fill:none;stroke:#000000;stroke-linecap:square;stroke-width:1.5;"/>
   </g>
   <g id="line2d_54">
    <path clip-path="url(#p5bd5c27638)" d="M 250.438255 131.840475 
L 252.285535 129.29803 
" style="fill:none;stroke:#000000;stroke-linecap:square;stroke-width:1.5;"/>
   </g>
   <g id="line2d_55">
    <path clip-path="url(#p5bd5c27638)" d="M 254.298571 135.616447 
L 257.069491 131.802778 
" style="fill:none;stroke:#000000;stroke-linecap:square;stroke-width:1.5;"/>
   </g>
   <g id="line2d_56">
    <path clip-path="url(#p5bd5c27638)" d="M 258.158886 139.392419 
L 261.853447 134.307527 
" style="fill:none;stroke:#000000;stroke-linecap:square;stroke-width:1.5;"/>
   </g>
   <g id="line2d_57">
    <path clip-path="url(#p5bd5c27638)" d="M 262.019202 143.16839 
L 266.637402 136.812276 
" style="fill:none;stroke:#000000;stroke-linecap:square;stroke-width:1.5;"/>
   </g>
   <g id="line2d_58">
    <path clip-path="url(#p5bd5c27638)" d="M 265.373153 146.449061 
L 270.793838 138.988473 
" style="fill:none;stroke:#000000;stroke-linecap:square;stroke-width:1.5;"/>
   </g>
   <g id="line2d_59">
    <path clip-path="url(#p5bd5c27638)" d="M 265.100848 143.46252 
L 267.332084 152.410368 
" style="fill:none;stroke:#000000;stroke-linecap:square;stroke-width:1.2;"/>
   </g>
   <g id="line2d_60">
    <path clip-path="url(#p5bd5c27638)" d="M 267.332084 152.410368 
L 269.563319 161.358216 
" style="fill:none;stroke:#ff0000;stroke-linecap:square;stroke-width:1.2;"/>
   </g>
   <g id="line2d_61">
    <path clip-path="url(#p5bd5c27638)" d="M 271.066143 141.975014 
L 273.297379 150.922862 
" style="fill:none;stroke:#000000;stroke-linecap:square;stroke-width:1.2;"/>
   </g>
   <g id="line2d_62">
    <path clip-path="url(#p5bd5c27638)" d="M 273.297379 150.922862 
L 275.528615 159.87071 
" style="fill:none;stroke:#ff0000;stroke-linecap:square;stroke-width:1.2;"/>
   </g>
   <g id="line2d_63">
    <path clip-path="url(#p5bd5c27638)" d="M 268.083496 142.718767 
L 280.719362 133.537849 
" style="fill:none;stroke:#000000;stroke-linecap:square;stroke-width:1.2;"/>
   </g>
   <g id="line2d_64">
    <path clip-path="url(#p5bd5c27638)" d="M 280.719362 133.537849 
L 293.355228 124.356932 
" style="fill:none;stroke:#0000ff;stroke-linecap:square;stroke-width:1.2;"/>
   </g>
   <g id="line2d_65">
    <path clip-path="url(#p5bd5c27638)" d="M 293.427145 124.220132 
L 288.59397 109.344174 
" style="fill:none;stroke:#0000ff;stroke-linecap:square;stroke-width:1.2;"/>
   </g>
   <g id="line2d_66">
    <path clip-path="url(#p5bd5c27638)" d="M 288.59397 109.344174 
L 283.760796 94.468217 
" style="fill:none;stroke:#000000;stroke-linecap:square;stroke-width:1.2;"/>
   </g>
   <g id="line2d_67">
    <path clip-path="url(#p5bd5c27638)" d="M 283.760796 94.468217 
L 299.438096 67.315132 
" style="fill:none;stroke:#000000;stroke-linecap:square;stroke-width:1.2;"/>
   </g>
   <g id="line2d_68">
    <path clip-path="url(#p5bd5c27638)" d="M 280.004275 88.67886 
L 292.546115 66.956393 
" style="fill:none;stroke:#000000;stroke-linecap:square;stroke-width:1.2;"/>
   </g>
   <g id="line2d_69">
    <path clip-path="url(#p5bd5c27638)" d="M 299.438096 67.315132 
L 283.760796 40.162048 
" style="fill:none;stroke:#000000;stroke-linecap:square;stroke-width:1.2;"/>
   </g>
   <g id="line2d_70">
    <path clip-path="url(#p5bd5c27638)" d="M 283.760796 40.162048 
L 291.579702 26.618661 
" style="fill:none;stroke:#000000;stroke-linecap:square;stroke-width:1.2;"/>
   </g>
   <g id="line2d_71">
    <path clip-path="url(#p5bd5c27638)" d="M 291.579702 26.618661 
L 299.398607 13.075275 
" style="fill:none;stroke:#00cc00;stroke-linecap:square;stroke-width:1.2;"/>
   </g>
   <g id="line2d_72">
    <path clip-path="url(#p5bd5c27638)" d="M 283.760796 40.162048 
L 252.406195 40.162048 
" style="fill:none;stroke:#000000;stroke-linecap:square;stroke-width:1.2;"/>
   </g>
   <g id="line2d_73">
    <path clip-path="url(#p5bd5c27638)" d="M 280.625336 46.310009 
L 255.541655 46.310009 
" style="fill:none;stroke:#000000;stroke-linecap:square;stroke-width:1.2;"/>
   </g>
   <g id="line2d_74">
    <path clip-path="url(#p5bd5c27638)" d="M 252.406195 40.162048 
L 244.58729 26.618661 
" style="fill:none;stroke:#000000;stroke-linecap:square;stroke-width:1.2;"/>
   </g>
   <g id="line2d_75">
    <path clip-path="url(#p5bd5c27638)" d="M 244.58729 26.618661 
L 236.768384 13.075275 
" style="fill:none;stroke:#33cccc;stroke-linecap:square;stroke-width:1.2;"/>
   </g>
   <g id="line2d_76">
    <path clip-path="url(#p5bd5c27638)" d="M 252.406195 40.162048 
L 236.728895 67.315132 
" style="fill:none;stroke:#000000;stroke-linecap:square;stroke-width:1.2;"/>
   </g>
   <g id="line2d_77">
    <path clip-path="url(#p5bd5c27638)" d="M 236.728895 67.315132 
L 252.406195 94.468217 
" style="fill:none;stroke:#000000;stroke-linecap:square;stroke-width:1.2;"/>
   </g>
   <g id="line2d_78">
    <path clip-path="url(#p5bd5c27638)" d="M 243.620876 66.956393 
L 256.162717 88.67886 
" style="fill:none;stroke:#000000;stroke-linecap:square;stroke-width:1.2;"/>
   </g>
   <g id="line2d_79">
    <path clip-path="url(#p5bd5c27638)" d="M 242.717623 124.288532 
L 217.349663 105.858297 
" style="fill:none;stroke:#000000;stroke-linecap:square;stroke-width:1.2;"/>
   </g>
   <g id="line2d_80">
    <path clip-path="url(#p5bd5c27638)" d="M 252.406195 94.468217 
L 283.760796 94.468217 
" style="fill:none;stroke:#000000;stroke-linecap:square;stroke-width:1.2;"/>
   </g>
   <g id="line2d_81">
    <path clip-path="url(#p5bd5c27638)" d="M 86.770297 171.132304 
L 102.447597 198.287476 
" style="fill:none;stroke:#000000;stroke-linecap:square;stroke-width:1.2;"/>
   </g>
   <g id="line2d_82">
    <path clip-path="url(#p5bd5c27638)" d="M 238.704234 208.120286 
L 251.457196 179.474714 
" style="fill:none;stroke:#000000;stroke-linecap:square;stroke-width:1.2;"/>
   </g>
   <g id="line2d_83">
    <path clip-path="url(#p5bd5c27638)" d="M 252.406195 94.468217 
L 242.717623 124.288532 
" style="fill:none;stroke:#000000;stroke-linecap:square;stroke-width:1.2;"/>
   </g>
   <g id="text_1">
    <!-- NH -->
    <defs>
     <path d="M 9.8125 72.90625 
L 23.09375 72.90625 
L 55.421875 11.921875 
L 55.421875 72.90625 
L 64.984375 72.90625 
L 64.984375 0 
L 51.703125 0 
L 19.390625 60.984375 
L 19.390625 0 
L 9.8125 0 
z
" id="DejaVuSans-78"/>
     <path d="M 9.8125 72.90625 
L 19.671875 72.90625 
L 19.671875 43.015625 
L 55.515625 43.015625 
L 55.515625 72.90625 
L 65.375 72.90625 
L 65.375 0 
L 55.515625 0 
L 55.515625 34.71875 
L 19.671875 34.71875 
L 19.671875 0 
L 9.8125 0 
z
" id="DejaVuSans-72"/>
    </defs>
    <g style="fill:#0000ff;" transform="translate(182.982853 127.599782)scale(0.12 -0.12)">
     <use xlink:href="#DejaVuSans-78"/>
     <use x="74.804688" xlink:href="#DejaVuSans-72"/>
    </g>
   </g>
   <g id="text_2">
    <!-- O -->
    <defs>
     <path d="M 39.40625 66.21875 
Q 28.65625 66.21875 22.328125 58.203125 
Q 16.015625 50.203125 16.015625 36.375 
Q 16.015625 22.609375 22.328125 14.59375 
Q 28.65625 6.59375 39.40625 6.59375 
Q 50.140625 6.59375 56.421875 14.59375 
Q 62.703125 22.609375 62.703125 36.375 
Q 62.703125 50.203125 56.421875 58.203125 
Q 50.140625 66.21875 39.40625 66.21875 
z
M 39.40625 74.21875 
Q 54.734375 74.21875 63.90625 63.9375 
Q 73.09375 53.65625 73.09375 36.375 
Q 73.09375 19.140625 63.90625 8.859375 
Q 54.734375 -1.421875 39.40625 -1.421875 
Q 24.03125 -1.421875 14.8125 8.828125 
Q 5.609375 19.09375 5.609375 36.375 
Q 5.609375 53.65625 14.8125 63.9375 
Q 24.03125 74.21875 39.40625 74.21875 
z
" id="DejaVuSans-79"/>
    </defs>
    <g style="fill:#ff0000;" transform="translate(195.997178 211.431536)scale(0.12 -0.12)">
     <use xlink:href="#DejaVuSans-79"/>
    </g>
   </g>
   <g id="text_3">
    <!-- NH -->
    <g style="fill:#0000ff;" transform="translate(143.060086 179.508368)scale(0.12 -0.12)">
     <use xlink:href="#DejaVuSans-78"/>
     <use x="74.804688" xlink:href="#DejaVuSans-72"/>
    </g>
   </g>
   <g id="text_4">
    <!-- HO -->
    <g style="fill:#ff0000;" transform="translate(7.2 227.823715)scale(0.12 -0.12)">
     <use xlink:href="#DejaVuSans-72"/>
     <use x="75.195312" xlink:href="#DejaVuSans-79"/>
    </g>
   </g>
   <g id="text_5">
    <!-- HO -->
    <g style="fill:#ff0000;" transform="translate(14.330031 159.982809)scale(0.12 -0.12)">
     <use xlink:href="#DejaVuSans-72"/>
     <use x="75.195312" xlink:href="#DejaVuSans-79"/>
    </g>
   </g>
   <g id="text_6">
    <!-- Cl -->
    <defs>
     <path d="M 64.40625 67.28125 
L 64.40625 56.890625 
Q 59.421875 61.53125 53.78125 63.8125 
Q 48.140625 66.109375 41.796875 66.109375 
Q 29.296875 66.109375 22.65625 58.46875 
Q 16.015625 50.828125 16.015625 36.375 
Q 16.015625 21.96875 22.65625 14.328125 
Q 29.296875 6.6875 41.796875 6.6875 
Q 48.140625 6.6875 53.78125 8.984375 
Q 59.421875 11.28125 64.40625 15.921875 
L 64.40625 5.609375 
Q 59.234375 2.09375 53.4375 0.328125 
Q 47.65625 -1.421875 41.21875 -1.421875 
Q 24.65625 -1.421875 15.125 8.703125 
Q 5.609375 18.84375 5.609375 36.375 
Q 5.609375 53.953125 15.125 64.078125 
Q 24.65625 74.21875 41.21875 74.21875 
Q 47.75 74.21875 53.53125 72.484375 
Q 59.328125 70.75 64.40625 67.28125 
z
" id="DejaVuSans-67"/>
     <path d="M 9.421875 75.984375 
L 18.40625 75.984375 
L 18.40625 0 
L 9.421875 0 
z
" id="DejaVuSans-108"/>
    </defs>
    <g style="fill:#00cc00;" transform="translate(232.668382 265.440867)scale(0.12 -0.12)">
     <use xlink:href="#DejaVuSans-67"/>
     <use x="69.824219" xlink:href="#DejaVuSans-108"/>
    </g>
   </g>
   <g id="text_7">
    <!-- O -->
    <g style="fill:#ff0000;" transform="translate(267.839898 163.994113)scale(0.12 -0.12)">
     <use xlink:href="#DejaVuSans-79"/>
    </g>
   </g>
   <g id="text_8">
    <!-- NH -->
    <g style="fill:#0000ff;" transform="translate(284.44843 127.599782)scale(0.12 -0.12)">
     <use xlink:href="#DejaVuSans-78"/>
     <use x="74.804688" xlink:href="#DejaVuSans-72"/>
    </g>
   </g>
   <g id="text_9">
    <!-- Cl -->
    <g style="fill:#00cc00;" transform="translate(299.438096 16.318125)scale(0.12 -0.12)">
     <use xlink:href="#DejaVuSans-67"/>
     <use x="69.824219" xlink:href="#DejaVuSans-108"/>
    </g>
   </g>
   <g id="text_10">
    <!-- F -->
    <defs>
     <path d="M 9.8125 72.90625 
L 51.703125 72.90625 
L 51.703125 64.59375 
L 19.671875 64.59375 
L 19.671875 43.109375 
L 48.578125 43.109375 
L 48.578125 34.8125 
L 19.671875 34.8125 
L 19.671875 0 
L 9.8125 0 
z
" id="DejaVuSans-70"/>
    </defs>
    <g style="fill:#33cccc;" transform="translate(229.82702 16.318125)scale(0.12 -0.12)">
     <use xlink:href="#DejaVuSans-70"/>
    </g>
   </g>
  </g>
 </g>
 <defs>
  <clipPath id="p5bd5c27638">
   <rect height="248.985942" width="275.29245" x="25.778175" y="13.075275"/>
  </clipPath>
 </defs>
</svg>
